<?xml version="1.0" encoding="utf-8"?>
<svg version="1.1" xmlns:xlink="http://www.w3.org/1999/xlink" width="12px" height="12px" viewBox="344 202  12 12" xmlns="http://www.w3.org/2000/svg">
  <path d="M 350 202  C 353.36 202  356 204.64  356 208  C 356 211.36  353.36 214  350 214  C 346.64 214  344 211.36  344 208  C 344 204.64  346.64 202  350 202  Z " fill-rule="nonzero" fill="#ffffff" stroke="none" fill-opacity="0" />
  <path d="M 350 202.5  C 353.08 202.5  355.5 204.92  355.5 208  C 355.5 211.08  353.08 213.5  350 213.5  C 346.92 213.5  344.5 211.08  344.5 208  C 344.5 204.92  346.92 202.5  350 202.5  Z " stroke-width="1" stroke="#797979" fill="none" />
  <path d="M 350 211  C 348.32 211  347 209.68  347 208  C 347 206.32  348.32 205  350 205  C 351.68 205  353 206.32  353 208  C 353 209.68  351.68 211  350 211  " fill-rule="nonzero" fill="#797979" stroke="none" />
</svg>