<?xml version="1.0" encoding="utf-8"?>
<svg version="1.1" xmlns:xlink="http://www.w3.org/1999/xlink" width="12px" height="12px" viewBox="248 202  12 12" xmlns="http://www.w3.org/2000/svg">
  <path d="M 254 202  C 257.36 202  260 204.64  260 208  C 260 211.36  257.36 214  254 214  C 250.64 214  248 211.36  248 208  C 248 204.64  250.64 202  254 202  Z " fill-rule="nonzero" fill="#ffffff" stroke="none" fill-opacity="0" />
  <path d="M 254 202.5  C 257.08 202.5  259.5 204.92  259.5 208  C 259.5 211.08  257.08 213.5  254 213.5  C 250.92 213.5  248.5 211.08  248.5 208  C 248.5 204.92  250.92 202.5  254 202.5  Z " stroke-width="1" stroke="#797979" fill="none" />
  <path d="M 254 211  C 252.32 211  251 209.68  251 208  C 251 206.32  252.32 205  254 205  C 255.68 205  257 206.32  257 208  C 257 209.68  255.68 211  254 211  " fill-rule="nonzero" fill="#797979" stroke="none" />
</svg>