<?xml version="1.0" encoding="utf-8"?>
<svg version="1.1" xmlns:xlink="http://www.w3.org/1999/xlink" width="12px" height="12px" viewBox="509 1054  12 12" xmlns="http://www.w3.org/2000/svg">
  <path d="M 509.5 1056  A 1.5 1.5 0 0 1 511 1054.5 L 519 1054.5  A 1.5 1.5 0 0 1 520.5 1056 L 520.5 1064  A 1.5 1.5 0 0 1 519 1065.5 L 511 1065.5  A 1.5 1.5 0 0 1 509.5 1064 L 509.5 1056  Z " fill-rule="nonzero" fill="#f0f0f0" stroke="none" />
  <path d="M 509.5 1056  A 1.5 1.5 0 0 1 511 1054.5 L 519 1054.5  A 1.5 1.5 0 0 1 520.5 1056 L 520.5 1064  A 1.5 1.5 0 0 1 519 1065.5 L 511 1065.5  A 1.5 1.5 0 0 1 509.5 1064 L 509.5 1056  Z " stroke-width="1" stroke="#797979" fill="none" />
</svg>