<?xml version="1.0" encoding="utf-8"?>
<svg version="1.1" xmlns:xlink="http://www.w3.org/1999/xlink" width="12px" height="12px" viewBox="509 1025  12 12" xmlns="http://www.w3.org/2000/svg">
  <path d="M 509.5 1027  A 1.5 1.5 0 0 1 511 1025.5 L 519 1025.5  A 1.5 1.5 0 0 1 520.5 1027 L 520.5 1035  A 1.5 1.5 0 0 1 519 1036.5 L 511 1036.5  A 1.5 1.5 0 0 1 509.5 1035 L 509.5 1027  Z " fill-rule="nonzero" fill="#ffffff" stroke="none" />
  <path d="M 509.5 1027  A 1.5 1.5 0 0 1 511 1025.5 L 519 1025.5  A 1.5 1.5 0 0 1 520.5 1027 L 520.5 1035  A 1.5 1.5 0 0 1 519 1036.5 L 511 1036.5  A 1.5 1.5 0 0 1 509.5 1035 L 509.5 1027  Z " stroke-width="1" stroke="#797979" fill="none" />
  <path d="M 511.571428571429 1031  L 514.142857142857 1033.57142857143  L 518.428571428571 1027.57142857143  " stroke-width="2.57142857142857" stroke="#797979" fill="none" />
</svg>