<?xml version="1.0" encoding="utf-8"?>
<svg version="1.1" xmlns:xlink="http://www.w3.org/1999/xlink" width="12px" height="12px" viewBox="209 314  12 12" xmlns="http://www.w3.org/2000/svg">
  <path d="M 209.5 316  A 1.5 1.5 0 0 1 211 314.5 L 219 314.5  A 1.5 1.5 0 0 1 220.5 316 L 220.5 324  A 1.5 1.5 0 0 1 219 325.5 L 211 325.5  A 1.5 1.5 0 0 1 209.5 324 L 209.5 316  Z " fill-rule="nonzero" fill="#f0f0f0" stroke="none" />
  <path d="M 209.5 316  A 1.5 1.5 0 0 1 211 314.5 L 219 314.5  A 1.5 1.5 0 0 1 220.5 316 L 220.5 324  A 1.5 1.5 0 0 1 219 325.5 L 211 325.5  A 1.5 1.5 0 0 1 209.5 324 L 209.5 316  Z " stroke-width="1" stroke="#797979" fill="none" />
</svg>