<?xml version="1.0" encoding="utf-8"?>
<svg version="1.1" xmlns:xlink="http://www.w3.org/1999/xlink" width="12px" height="12px" viewBox="209 345  12 12" xmlns="http://www.w3.org/2000/svg">
  <path d="M 209.5 347  A 1.5 1.5 0 0 1 211 345.5 L 219 345.5  A 1.5 1.5 0 0 1 220.5 347 L 220.5 355  A 1.5 1.5 0 0 1 219 356.5 L 211 356.5  A 1.5 1.5 0 0 1 209.5 355 L 209.5 347  Z " fill-rule="nonzero" fill="#ffffff" stroke="none" />
  <path d="M 209.5 347  A 1.5 1.5 0 0 1 211 345.5 L 219 345.5  A 1.5 1.5 0 0 1 220.5 347 L 220.5 355  A 1.5 1.5 0 0 1 219 356.5 L 211 356.5  A 1.5 1.5 0 0 1 209.5 355 L 209.5 347  Z " stroke-width="1" stroke="#797979" fill="none" />
</svg>