<?xml version="1.0" encoding="utf-8"?>
<svg version="1.1" xmlns:xlink="http://www.w3.org/1999/xlink" width="12px" height="12px" viewBox="227 217  12 12" xmlns="http://www.w3.org/2000/svg">
  <path d="M 227.5 219  A 1.5 1.5 0 0 1 229 217.5 L 237 217.5  A 1.5 1.5 0 0 1 238.5 219 L 238.5 227  A 1.5 1.5 0 0 1 237 228.5 L 229 228.5  A 1.5 1.5 0 0 1 227.5 227 L 227.5 219  Z " fill-rule="nonzero" fill="#f0f0f0" stroke="none" />
  <path d="M 227.5 219  A 1.5 1.5 0 0 1 229 217.5 L 237 217.5  A 1.5 1.5 0 0 1 238.5 219 L 238.5 227  A 1.5 1.5 0 0 1 237 228.5 L 229 228.5  A 1.5 1.5 0 0 1 227.5 227 L 227.5 219  Z " stroke-width="1" stroke="#797979" fill="none" />
</svg>