<?xml version="1.0" encoding="utf-8"?>
<svg version="1.1" xmlns:xlink="http://www.w3.org/1999/xlink" width="12px" height="12px" viewBox="227 248  12 12" xmlns="http://www.w3.org/2000/svg">
  <path d="M 227.5 250  A 1.5 1.5 0 0 1 229 248.5 L 237 248.5  A 1.5 1.5 0 0 1 238.5 250 L 238.5 258  A 1.5 1.5 0 0 1 237 259.5 L 229 259.5  A 1.5 1.5 0 0 1 227.5 258 L 227.5 250  Z " fill-rule="nonzero" fill="#ffffff" stroke="none" />
  <path d="M 227.5 250  A 1.5 1.5 0 0 1 229 248.5 L 237 248.5  A 1.5 1.5 0 0 1 238.5 250 L 238.5 258  A 1.5 1.5 0 0 1 237 259.5 L 229 259.5  A 1.5 1.5 0 0 1 227.5 258 L 227.5 250  Z " stroke-width="1" stroke="#797979" fill="none" />
  <path d="M 229.571428571429 254  L 232.142857142857 256.571428571429  L 236.428571428571 250.571428571429  " stroke-width="2.57142857142857" stroke="#797979" fill="none" />
</svg>