<?xml version="1.0" encoding="utf-8"?>
<svg version="1.1" xmlns:xlink="http://www.w3.org/1999/xlink" width="12px" height="12px" viewBox="180 238  12 12" xmlns="http://www.w3.org/2000/svg">
  <path d="M 180.5 240  A 1.5 1.5 0 0 1 182 238.5 L 190 238.5  A 1.5 1.5 0 0 1 191.5 240 L 191.5 248  A 1.5 1.5 0 0 1 190 249.5 L 182 249.5  A 1.5 1.5 0 0 1 180.5 248 L 180.5 240  Z " fill-rule="nonzero" fill="#ffffff" stroke="none" />
  <path d="M 180.5 240  A 1.5 1.5 0 0 1 182 238.5 L 190 238.5  A 1.5 1.5 0 0 1 191.5 240 L 191.5 248  A 1.5 1.5 0 0 1 190 249.5 L 182 249.5  A 1.5 1.5 0 0 1 180.5 248 L 180.5 240  Z " stroke-width="1" stroke="#797979" fill="none" />
</svg>