<?xml version="1.0" encoding="utf-8"?>
<svg version="1.1" xmlns:xlink="http://www.w3.org/1999/xlink" width="40px" height="40px" xmlns="http://www.w3.org/2000/svg">
  <defs>
    <mask fill="white" id="clip19">
      <path d="M 210 268  C 208.89 268  208 267.11  208 266  L 208 230  C 208 228.89  208.89 228  210 228  L 246 228  C 247.11 228  248 228.89  248 230  L 248 266  C 248 267.11  247.11 268  246 268  " fill-rule="evenodd" />
    </mask>
  </defs>
  <g transform="matrix(1 0 0 1 -208 -228 )">
    <path d="M 208 228  L 248 228  L 248 268  L 208 268  L 208 228  " fill-rule="nonzero" fill="#cccccc" stroke="none" mask="url(#clip19)" />
    <path d="M 211 231  L 245 231  L 245 265  L 211 265  L 211 231  " fill-rule="nonzero" fill="#ffffff" stroke="none" mask="url(#clip19)" />
    <path d="M 231.8 240  C 230.12 240  228.8 238.68  228.8 237  C 228.8 235.32  230.12 234  231.8 234  C 233.48 234  234.8 235.32  234.8 237  C 234.8 238.68  233.48 240  231.8 240  " fill-rule="nonzero" fill="#cccccc" stroke="none" mask="url(#clip19)" />
    <path d="M 212 264  L 212 246.4  L 220 238.4  L 231.2 244.8  L 237.6 243.2  L 244 244.8  L 244 264  L 212 264  " fill-rule="nonzero" fill="#169bd5" stroke="none" mask="url(#clip19)" />
  </g>
</svg>