<?xml version="1.0" encoding="utf-8"?>
<svg version="1.1" xmlns:xlink="http://www.w3.org/1999/xlink" width="12px" height="12px" viewBox="292 214  12 12" xmlns="http://www.w3.org/2000/svg">
  <path d="M 298 214  C 301.36 214  304 216.64  304 220  C 304 223.36  301.36 226  298 226  C 294.64 226  292 223.36  292 220  C 292 216.64  294.64 214  298 214  Z " fill-rule="nonzero" fill="#ffffff" stroke="none" />
  <path d="M 298 214.5  C 301.08 214.5  303.5 216.92  303.5 220  C 303.5 223.08  301.08 225.5  298 225.5  C 294.92 225.5  292.5 223.08  292.5 220  C 292.5 216.92  294.92 214.5  298 214.5  Z " stroke-width="1" stroke="#797979" fill="none" />
  <path d="M 298 223  C 296.32 223  295 221.68  295 220  C 295 218.32  296.32 217  298 217  C 299.68 217  301 218.32  301 220  C 301 221.68  299.68 223  298 223  " fill-rule="nonzero" fill="#797979" stroke="none" />
</svg>