<?xml version="1.0" encoding="utf-8"?>
<svg version="1.1" xmlns:xlink="http://www.w3.org/1999/xlink" width="12px" height="12px" viewBox="484 214  12 12" xmlns="http://www.w3.org/2000/svg">
  <path d="M 490 214  C 493.36 214  496 216.64  496 220  C 496 223.36  493.36 226  490 226  C 486.64 226  484 223.36  484 220  C 484 216.64  486.64 214  490 214  Z " fill-rule="nonzero" fill="#ffffff" stroke="none" />
  <path d="M 490 214.5  C 493.08 214.5  495.5 216.92  495.5 220  C 495.5 223.08  493.08 225.5  490 225.5  C 486.92 225.5  484.5 223.08  484.5 220  C 484.5 216.92  486.92 214.5  490 214.5  Z " stroke-width="1" stroke="#797979" fill="none" />
  <path d="M 490 223  C 488.32 223  487 221.68  487 220  C 487 218.32  488.32 217  490 217  C 491.68 217  493 218.32  493 220  C 493 221.68  491.68 223  490 223  " fill-rule="nonzero" fill="#797979" stroke="none" />
</svg>