<?xml version="1.0" encoding="utf-8"?>
<svg version="1.1" xmlns:xlink="http://www.w3.org/1999/xlink" width="12px" height="12px" viewBox="232 213  12 12" xmlns="http://www.w3.org/2000/svg">
  <path d="M 238 213  C 241.36 213  244 215.64  244 219  C 244 222.36  241.36 225  238 225  C 234.64 225  232 222.36  232 219  C 232 215.64  234.64 213  238 213  Z " fill-rule="nonzero" fill="#ffffff" stroke="none" fill-opacity="0" />
  <path d="M 238 213.5  C 241.08 213.5  243.5 215.92  243.5 219  C 243.5 222.08  241.08 224.5  238 224.5  C 234.92 224.5  232.5 222.08  232.5 219  C 232.5 215.92  234.92 213.5  238 213.5  Z " stroke-width="1" stroke="#797979" fill="none" />
  <path d="M 238 222  C 236.32 222  235 220.68  235 219  C 235 217.32  236.32 216  238 216  C 239.68 216  241 217.32  241 219  C 241 220.68  239.68 222  238 222  " fill-rule="nonzero" fill="#797979" stroke="none" />
</svg>