<?xml version="1.0" encoding="utf-8"?>
<svg version="1.1" xmlns:xlink="http://www.w3.org/1999/xlink" width="12px" height="12px" viewBox="388 214  12 12" xmlns="http://www.w3.org/2000/svg">
  <path d="M 394 214  C 397.36 214  400 216.64  400 220  C 400 223.36  397.36 226  394 226  C 390.64 226  388 223.36  388 220  C 388 216.64  390.64 214  394 214  Z " fill-rule="nonzero" fill="#ffffff" stroke="none" />
  <path d="M 394 214.5  C 397.08 214.5  399.5 216.92  399.5 220  C 399.5 223.08  397.08 225.5  394 225.5  C 390.92 225.5  388.5 223.08  388.5 220  C 388.5 216.92  390.92 214.5  394 214.5  Z " stroke-width="1" stroke="#797979" fill="none" />
  <path d="M 394 223  C 392.32 223  391 221.68  391 220  C 391 218.32  392.32 217  394 217  C 395.68 217  397 218.32  397 220  C 397 221.68  395.68 223  394 223  " fill-rule="nonzero" fill="#797979" stroke="none" />
</svg>