<?xml version="1.0" encoding="utf-8"?>
<svg version="1.1" xmlns:xlink="http://www.w3.org/1999/xlink" width="12px" height="12px" viewBox="206 1223  12 12" xmlns="http://www.w3.org/2000/svg">
  <path d="M 206.5 1225  A 1.5 1.5 0 0 1 208 1223.5 L 216 1223.5  A 1.5 1.5 0 0 1 217.5 1225 L 217.5 1233  A 1.5 1.5 0 0 1 216 1234.5 L 208 1234.5  A 1.5 1.5 0 0 1 206.5 1233 L 206.5 1225  Z " fill-rule="nonzero" fill="#f0f0f0" stroke="none" />
  <path d="M 206.5 1225  A 1.5 1.5 0 0 1 208 1223.5 L 216 1223.5  A 1.5 1.5 0 0 1 217.5 1225 L 217.5 1233  A 1.5 1.5 0 0 1 216 1234.5 L 208 1234.5  A 1.5 1.5 0 0 1 206.5 1233 L 206.5 1225  Z " stroke-width="1" stroke="#797979" fill="none" />
</svg>