<?xml version="1.0" encoding="utf-8"?>
<svg version="1.1" xmlns:xlink="http://www.w3.org/1999/xlink" width="12px" height="12px" viewBox="328 216  12 12" xmlns="http://www.w3.org/2000/svg">
  <path d="M 334 216  C 337.36 216  340 218.64  340 222  C 340 225.36  337.36 228  334 228  C 330.64 228  328 225.36  328 222  C 328 218.64  330.64 216  334 216  Z " fill-rule="nonzero" fill="#ffffff" stroke="none" fill-opacity="0" />
  <path d="M 334 216.5  C 337.08 216.5  339.5 218.92  339.5 222  C 339.5 225.08  337.08 227.5  334 227.5  C 330.92 227.5  328.5 225.08  328.5 222  C 328.5 218.92  330.92 216.5  334 216.5  Z " stroke-width="1" stroke="#797979" fill="none" />
  <path d="M 334 225  C 332.32 225  331 223.68  331 222  C 331 220.32  332.32 219  334 219  C 335.68 219  337 220.32  337 222  C 337 223.68  335.68 225  334 225  " fill-rule="nonzero" fill="#797979" stroke="none" />
</svg>