<?xml version="1.0" encoding="utf-8"?>
<svg version="1.1" xmlns:xlink="http://www.w3.org/1999/xlink" width="12px" height="12px" viewBox="206 972  12 12" xmlns="http://www.w3.org/2000/svg">
  <path d="M 206.5 974  A 1.5 1.5 0 0 1 208 972.5 L 216 972.5  A 1.5 1.5 0 0 1 217.5 974 L 217.5 982  A 1.5 1.5 0 0 1 216 983.5 L 208 983.5  A 1.5 1.5 0 0 1 206.5 982 L 206.5 974  Z " fill-rule="nonzero" fill="#ffffff" stroke="none" />
  <path d="M 206.5 974  A 1.5 1.5 0 0 1 208 972.5 L 216 972.5  A 1.5 1.5 0 0 1 217.5 974 L 217.5 982  A 1.5 1.5 0 0 1 216 983.5 L 208 983.5  A 1.5 1.5 0 0 1 206.5 982 L 206.5 974  Z " stroke-width="1" stroke="#797979" fill="none" />
</svg>