<?xml version="1.0" encoding="utf-8"?>
<svg version="1.1" xmlns:xlink="http://www.w3.org/1999/xlink" width="12px" height="12px" viewBox="205 288  12 12" xmlns="http://www.w3.org/2000/svg">
  <path d="M 205.5 290  A 1.5 1.5 0 0 1 207 288.5 L 215 288.5  A 1.5 1.5 0 0 1 216.5 290 L 216.5 298  A 1.5 1.5 0 0 1 215 299.5 L 207 299.5  A 1.5 1.5 0 0 1 205.5 298 L 205.5 290  Z " fill-rule="nonzero" fill="#ffffff" stroke="none" />
  <path d="M 205.5 290  A 1.5 1.5 0 0 1 207 288.5 L 215 288.5  A 1.5 1.5 0 0 1 216.5 290 L 216.5 298  A 1.5 1.5 0 0 1 215 299.5 L 207 299.5  A 1.5 1.5 0 0 1 205.5 298 L 205.5 290  Z " stroke-width="1" stroke="#797979" fill="none" />
  <path d="M 207.571428571429 294  L 210.142857142857 296.571428571429  L 214.428571428571 290.571428571429  " stroke-width="2.57142857142857" stroke="#797979" fill="none" />
</svg>