<?xml version="1.0" encoding="utf-8"?>
<svg version="1.1" xmlns:xlink="http://www.w3.org/1999/xlink" width="12px" height="12px" viewBox="205 259  12 12" xmlns="http://www.w3.org/2000/svg">
  <path d="M 205.5 261  A 1.5 1.5 0 0 1 207 259.5 L 215 259.5  A 1.5 1.5 0 0 1 216.5 261 L 216.5 269  A 1.5 1.5 0 0 1 215 270.5 L 207 270.5  A 1.5 1.5 0 0 1 205.5 269 L 205.5 261  Z " fill-rule="nonzero" fill="#ffffff" stroke="none" />
  <path d="M 205.5 261  A 1.5 1.5 0 0 1 207 259.5 L 215 259.5  A 1.5 1.5 0 0 1 216.5 261 L 216.5 269  A 1.5 1.5 0 0 1 215 270.5 L 207 270.5  A 1.5 1.5 0 0 1 205.5 269 L 205.5 261  Z " stroke-width="1" stroke="#797979" fill="none" />
</svg>