<?xml version="1.0" encoding="utf-8"?>
<svg version="1.1" xmlns:xlink="http://www.w3.org/1999/xlink" width="12px" height="12px" viewBox="27 553  12 12" xmlns="http://www.w3.org/2000/svg">
  <path d="M 27.5 555  A 1.5 1.5 0 0 1 29 553.5 L 37 553.5  A 1.5 1.5 0 0 1 38.5 555 L 38.5 563  A 1.5 1.5 0 0 1 37 564.5 L 29 564.5  A 1.5 1.5 0 0 1 27.5 563 L 27.5 555  Z " fill-rule="nonzero" fill="#ffffff" stroke="none" />
  <path d="M 27.5 555  A 1.5 1.5 0 0 1 29 553.5 L 37 553.5  A 1.5 1.5 0 0 1 38.5 555 L 38.5 563  A 1.5 1.5 0 0 1 37 564.5 L 29 564.5  A 1.5 1.5 0 0 1 27.5 563 L 27.5 555  Z " stroke-width="1" stroke="#c6c6c6" fill="none" />
</svg>