<?xml version="1.0" encoding="utf-8"?>
<svg version="1.1" xmlns:xlink="http://www.w3.org/1999/xlink" width="12px" height="12px" viewBox="206 943  12 12" xmlns="http://www.w3.org/2000/svg">
  <path d="M 206.5 945  A 1.5 1.5 0 0 1 208 943.5 L 216 943.5  A 1.5 1.5 0 0 1 217.5 945 L 217.5 953  A 1.5 1.5 0 0 1 216 954.5 L 208 954.5  A 1.5 1.5 0 0 1 206.5 953 L 206.5 945  Z " fill-rule="nonzero" fill="#ffffff" stroke="none" />
  <path d="M 206.5 945  A 1.5 1.5 0 0 1 208 943.5 L 216 943.5  A 1.5 1.5 0 0 1 217.5 945 L 217.5 953  A 1.5 1.5 0 0 1 216 954.5 L 208 954.5  A 1.5 1.5 0 0 1 206.5 953 L 206.5 945  Z " stroke-width="1" stroke="#797979" fill="none" />
  <path d="M 208.571428571429 949  L 211.142857142857 951.571428571429  L 215.428571428571 945.571428571429  " stroke-width="2.57142857142857" stroke="#797979" fill="none" />
</svg>