<?xml version="1.0" encoding="utf-8"?>
<svg version="1.1" xmlns:xlink="http://www.w3.org/1999/xlink" width="12px" height="12px" viewBox="28 1469  12 12" xmlns="http://www.w3.org/2000/svg">
  <path d="M 28.5 1471  A 1.5 1.5 0 0 1 30 1469.5 L 38 1469.5  A 1.5 1.5 0 0 1 39.5 1471 L 39.5 1479  A 1.5 1.5 0 0 1 38 1480.5 L 30 1480.5  A 1.5 1.5 0 0 1 28.5 1479 L 28.5 1471  Z " fill-rule="nonzero" fill="#f0f0f0" stroke="none" />
  <path d="M 28.5 1471  A 1.5 1.5 0 0 1 30 1469.5 L 38 1469.5  A 1.5 1.5 0 0 1 39.5 1471 L 39.5 1479  A 1.5 1.5 0 0 1 38 1480.5 L 30 1480.5  A 1.5 1.5 0 0 1 28.5 1479 L 28.5 1471  Z " stroke-width="1" stroke="#c6c6c6" fill="none" />
</svg>