<?xml version="1.0" encoding="utf-8"?>
<svg version="1.1" xmlns:xlink="http://www.w3.org/1999/xlink" width="12px" height="12px" viewBox="540 1885  12 12" xmlns="http://www.w3.org/2000/svg">
  <path d="M 540.5 1887  A 1.5 1.5 0 0 1 542 1885.5 L 550 1885.5  A 1.5 1.5 0 0 1 551.5 1887 L 551.5 1895  A 1.5 1.5 0 0 1 550 1896.5 L 542 1896.5  A 1.5 1.5 0 0 1 540.5 1895 L 540.5 1887  Z " fill-rule="nonzero" fill="#ffffff" stroke="none" />
  <path d="M 540.5 1887  A 1.5 1.5 0 0 1 542 1885.5 L 550 1885.5  A 1.5 1.5 0 0 1 551.5 1887 L 551.5 1895  A 1.5 1.5 0 0 1 550 1896.5 L 542 1896.5  A 1.5 1.5 0 0 1 540.5 1895 L 540.5 1887  Z " stroke-width="1" stroke="#797979" fill="none" />
</svg>