<?xml version="1.0" encoding="utf-8"?>
<svg version="1.1" xmlns:xlink="http://www.w3.org/1999/xlink" width="12px" height="12px" viewBox="28 1440  12 12" xmlns="http://www.w3.org/2000/svg">
  <path d="M 28.5 1442  A 1.5 1.5 0 0 1 30 1440.5 L 38 1440.5  A 1.5 1.5 0 0 1 39.5 1442 L 39.5 1450  A 1.5 1.5 0 0 1 38 1451.5 L 30 1451.5  A 1.5 1.5 0 0 1 28.5 1450 L 28.5 1442  Z " fill-rule="nonzero" fill="#f0f0f0" stroke="none" />
  <path d="M 28.5 1442  A 1.5 1.5 0 0 1 30 1440.5 L 38 1440.5  A 1.5 1.5 0 0 1 39.5 1442 L 39.5 1450  A 1.5 1.5 0 0 1 38 1451.5 L 30 1451.5  A 1.5 1.5 0 0 1 28.5 1450 L 28.5 1442  Z " stroke-width="1" stroke="#c6c6c6" fill="none" />
</svg>