<?xml version="1.0" encoding="utf-8"?>
<svg version="1.1" xmlns:xlink="http://www.w3.org/1999/xlink" width="12px" height="12px" viewBox="206 1252  12 12" xmlns="http://www.w3.org/2000/svg">
  <path d="M 206.5 1254  A 1.5 1.5 0 0 1 208 1252.5 L 216 1252.5  A 1.5 1.5 0 0 1 217.5 1254 L 217.5 1262  A 1.5 1.5 0 0 1 216 1263.5 L 208 1263.5  A 1.5 1.5 0 0 1 206.5 1262 L 206.5 1254  Z " fill-rule="nonzero" fill="#f0f0f0" stroke="none" />
  <path d="M 206.5 1254  A 1.5 1.5 0 0 1 208 1252.5 L 216 1252.5  A 1.5 1.5 0 0 1 217.5 1254 L 217.5 1262  A 1.5 1.5 0 0 1 216 1263.5 L 208 1263.5  A 1.5 1.5 0 0 1 206.5 1262 L 206.5 1254  Z " stroke-width="1" stroke="#797979" fill="none" />
</svg>