<?xml version="1.0" encoding="utf-8"?>
<svg version="1.1" xmlns:xlink="http://www.w3.org/1999/xlink" width="12px" height="12px" viewBox="540 1914  12 12" xmlns="http://www.w3.org/2000/svg">
  <path d="M 540.5 1916  A 1.5 1.5 0 0 1 542 1914.5 L 550 1914.5  A 1.5 1.5 0 0 1 551.5 1916 L 551.5 1924  A 1.5 1.5 0 0 1 550 1925.5 L 542 1925.5  A 1.5 1.5 0 0 1 540.5 1924 L 540.5 1916  Z " fill-rule="nonzero" fill="#ffffff" stroke="none" />
  <path d="M 540.5 1916  A 1.5 1.5 0 0 1 542 1914.5 L 550 1914.5  A 1.5 1.5 0 0 1 551.5 1916 L 551.5 1924  A 1.5 1.5 0 0 1 550 1925.5 L 542 1925.5  A 1.5 1.5 0 0 1 540.5 1924 L 540.5 1916  Z " stroke-width="1" stroke="#797979" fill="none" />
  <path d="M 542.571428571429 1920  L 545.142857142857 1922.57142857143  L 549.428571428571 1916.57142857143  " stroke-width="2.57142857142857" stroke="#797979" fill="none" />
</svg>