<?xml version="1.0" encoding="utf-8"?>
<svg version="1.1" xmlns:xlink="http://www.w3.org/1999/xlink" width="12px" height="12px" viewBox="28 1743  12 12" xmlns="http://www.w3.org/2000/svg">
  <path d="M 28.5 1745  A 1.5 1.5 0 0 1 30 1743.5 L 38 1743.5  A 1.5 1.5 0 0 1 39.5 1745 L 39.5 1753  A 1.5 1.5 0 0 1 38 1754.5 L 30 1754.5  A 1.5 1.5 0 0 1 28.5 1753 L 28.5 1745  Z " fill-rule="nonzero" fill="#ffffff" stroke="none" />
  <path d="M 28.5 1745  A 1.5 1.5 0 0 1 30 1743.5 L 38 1743.5  A 1.5 1.5 0 0 1 39.5 1745 L 39.5 1753  A 1.5 1.5 0 0 1 38 1754.5 L 30 1754.5  A 1.5 1.5 0 0 1 28.5 1753 L 28.5 1745  Z " stroke-width="1" stroke="#c6c6c6" fill="none" />
  <path d="M 30.5714285714286 1749  L 33.1428571428571 1751.57142857143  L 37.4285714285714 1745.57142857143  " stroke-width="2.57142857142857" stroke="#c6c6c6" fill="none" />
</svg>