<?xml version="1.0" encoding="utf-8"?>
<svg version="1.1" xmlns:xlink="http://www.w3.org/1999/xlink" width="12px" height="12px" viewBox="28 1775  12 12" xmlns="http://www.w3.org/2000/svg">
  <path d="M 28.5 1777  A 1.5 1.5 0 0 1 30 1775.5 L 38 1775.5  A 1.5 1.5 0 0 1 39.5 1777 L 39.5 1785  A 1.5 1.5 0 0 1 38 1786.5 L 30 1786.5  A 1.5 1.5 0 0 1 28.5 1785 L 28.5 1777  Z " fill-rule="nonzero" fill="#ffffff" stroke="none" />
  <path d="M 28.5 1777  A 1.5 1.5 0 0 1 30 1775.5 L 38 1775.5  A 1.5 1.5 0 0 1 39.5 1777 L 39.5 1785  A 1.5 1.5 0 0 1 38 1786.5 L 30 1786.5  A 1.5 1.5 0 0 1 28.5 1785 L 28.5 1777  Z " stroke-width="1" stroke="#c6c6c6" fill="none" />
  <path d="M 30.5714285714286 1781  L 33.1428571428571 1783.57142857143  L 37.4285714285714 1777.57142857143  " stroke-width="2.57142857142857" stroke="#c6c6c6" fill="none" />
</svg>