<?xml version="1.0" encoding="utf-8"?>
<svg version="1.1" xmlns:xlink="http://www.w3.org/1999/xlink" width="12px" height="12px" viewBox="568 2478  12 12" xmlns="http://www.w3.org/2000/svg">
  <path d="M 568.5 2480  A 1.5 1.5 0 0 1 570 2478.5 L 578 2478.5  A 1.5 1.5 0 0 1 579.5 2480 L 579.5 2488  A 1.5 1.5 0 0 1 578 2489.5 L 570 2489.5  A 1.5 1.5 0 0 1 568.5 2488 L 568.5 2480  Z " fill-rule="nonzero" fill="#f0f0f0" stroke="none" />
  <path d="M 568.5 2480  A 1.5 1.5 0 0 1 570 2478.5 L 578 2478.5  A 1.5 1.5 0 0 1 579.5 2480 L 579.5 2488  A 1.5 1.5 0 0 1 578 2489.5 L 570 2489.5  A 1.5 1.5 0 0 1 568.5 2488 L 568.5 2480  Z " stroke-width="1" stroke="#797979" fill="none" />
</svg>