<?xml version="1.0" encoding="utf-8"?>
<svg version="1.1" xmlns:xlink="http://www.w3.org/1999/xlink" width="12px" height="12px" viewBox="568 2507  12 12" xmlns="http://www.w3.org/2000/svg">
  <path d="M 568.5 2509  A 1.5 1.5 0 0 1 570 2507.5 L 578 2507.5  A 1.5 1.5 0 0 1 579.5 2509 L 579.5 2517  A 1.5 1.5 0 0 1 578 2518.5 L 570 2518.5  A 1.5 1.5 0 0 1 568.5 2517 L 568.5 2509  Z " fill-rule="nonzero" fill="#ffffff" stroke="none" />
  <path d="M 568.5 2509  A 1.5 1.5 0 0 1 570 2507.5 L 578 2507.5  A 1.5 1.5 0 0 1 579.5 2509 L 579.5 2517  A 1.5 1.5 0 0 1 578 2518.5 L 570 2518.5  A 1.5 1.5 0 0 1 568.5 2517 L 568.5 2509  Z " stroke-width="1" stroke="#797979" fill="none" />
  <path d="M 570.571428571429 2513  L 573.142857142857 2515.57142857143  L 577.428571428571 2509.57142857143  " stroke-width="2.57142857142857" stroke="#797979" fill="none" />
</svg>