<?xml version="1.0" encoding="utf-8"?>
<svg version="1.1" xmlns:xlink="http://www.w3.org/1999/xlink" width="12px" height="12px" viewBox="568 2481  12 12" xmlns="http://www.w3.org/2000/svg">
  <path d="M 568.5 2483  A 1.5 1.5 0 0 1 570 2481.5 L 578 2481.5  A 1.5 1.5 0 0 1 579.5 2483 L 579.5 2491  A 1.5 1.5 0 0 1 578 2492.5 L 570 2492.5  A 1.5 1.5 0 0 1 568.5 2491 L 568.5 2483  Z " fill-rule="nonzero" fill="#f0f0f0" stroke="none" />
  <path d="M 568.5 2483  A 1.5 1.5 0 0 1 570 2481.5 L 578 2481.5  A 1.5 1.5 0 0 1 579.5 2483 L 579.5 2491  A 1.5 1.5 0 0 1 578 2492.5 L 570 2492.5  A 1.5 1.5 0 0 1 568.5 2491 L 568.5 2483  Z " stroke-width="1" stroke="#797979" fill="none" />
</svg>