<?xml version="1.0" encoding="utf-8"?>
<svg version="1.1" xmlns:xlink="http://www.w3.org/1999/xlink" width="12px" height="12px" viewBox="27 297  12 12" xmlns="http://www.w3.org/2000/svg">
  <path d="M 27.5 299  A 1.5 1.5 0 0 1 29 297.5 L 37 297.5  A 1.5 1.5 0 0 1 38.5 299 L 38.5 307  A 1.5 1.5 0 0 1 37 308.5 L 29 308.5  A 1.5 1.5 0 0 1 27.5 307 L 27.5 299  Z " fill-rule="nonzero" fill="#ffffff" stroke="none" />
  <path d="M 27.5 299  A 1.5 1.5 0 0 1 29 297.5 L 37 297.5  A 1.5 1.5 0 0 1 38.5 299 L 38.5 307  A 1.5 1.5 0 0 1 37 308.5 L 29 308.5  A 1.5 1.5 0 0 1 27.5 307 L 27.5 299  Z " stroke-width="1" stroke="#c6c6c6" fill="none" />
  <path d="M 29.5714285714286 303  L 32.1428571428571 305.571428571429  L 36.4285714285714 299.571428571429  " stroke-width="2.57142857142857" stroke="#c6c6c6" fill="none" />
</svg>