<?xml version="1.0" encoding="utf-8"?>
<svg version="1.1" xmlns:xlink="http://www.w3.org/1999/xlink" width="12px" height="12px" viewBox="27 300  12 12" xmlns="http://www.w3.org/2000/svg">
  <path d="M 27.5 302  A 1.5 1.5 0 0 1 29 300.5 L 37 300.5  A 1.5 1.5 0 0 1 38.5 302 L 38.5 310  A 1.5 1.5 0 0 1 37 311.5 L 29 311.5  A 1.5 1.5 0 0 1 27.5 310 L 27.5 302  Z " fill-rule="nonzero" fill="#ffffff" stroke="none" />
  <path d="M 27.5 302  A 1.5 1.5 0 0 1 29 300.5 L 37 300.5  A 1.5 1.5 0 0 1 38.5 302 L 38.5 310  A 1.5 1.5 0 0 1 37 311.5 L 29 311.5  A 1.5 1.5 0 0 1 27.5 310 L 27.5 302  Z " stroke-width="1" stroke="#c6c6c6" fill="none" />
</svg>