<?xml version="1.0" encoding="utf-8"?>
<svg version="1.1" xmlns:xlink="http://www.w3.org/1999/xlink" width="12px" height="12px" viewBox="206 258  12 12" xmlns="http://www.w3.org/2000/svg">
  <path d="M 206.5 260  A 1.5 1.5 0 0 1 208 258.5 L 216 258.5  A 1.5 1.5 0 0 1 217.5 260 L 217.5 268  A 1.5 1.5 0 0 1 216 269.5 L 208 269.5  A 1.5 1.5 0 0 1 206.5 268 L 206.5 260  Z " fill-rule="nonzero" fill="#ffffff" stroke="none" />
  <path d="M 206.5 260  A 1.5 1.5 0 0 1 208 258.5 L 216 258.5  A 1.5 1.5 0 0 1 217.5 260 L 217.5 268  A 1.5 1.5 0 0 1 216 269.5 L 208 269.5  A 1.5 1.5 0 0 1 206.5 268 L 206.5 260  Z " stroke-width="1" stroke="#797979" fill="none" />
  <path d="M 208.571428571429 264  L 211.142857142857 266.571428571429  L 215.428571428571 260.571428571429  " stroke-width="2.57142857142857" stroke="#797979" fill="none" />
</svg>