<?xml version="1.0" encoding="utf-8"?>
<svg version="1.1" xmlns:xlink="http://www.w3.org/1999/xlink" width="12px" height="12px" viewBox="206 377  12 12" xmlns="http://www.w3.org/2000/svg">
  <path d="M 206.5 379  A 1.5 1.5 0 0 1 208 377.5 L 216 377.5  A 1.5 1.5 0 0 1 217.5 379 L 217.5 387  A 1.5 1.5 0 0 1 216 388.5 L 208 388.5  A 1.5 1.5 0 0 1 206.5 387 L 206.5 379  Z " fill-rule="nonzero" fill="#ffffff" stroke="none" />
  <path d="M 206.5 379  A 1.5 1.5 0 0 1 208 377.5 L 216 377.5  A 1.5 1.5 0 0 1 217.5 379 L 217.5 387  A 1.5 1.5 0 0 1 216 388.5 L 208 388.5  A 1.5 1.5 0 0 1 206.5 387 L 206.5 379  Z " stroke-width="1" stroke="#797979" fill="none" />
  <path d="M 208.571428571429 383  L 211.142857142857 385.571428571429  L 215.428571428571 379.571428571429  " stroke-width="2.57142857142857" stroke="#797979" fill="none" />
</svg>