<?xml version="1.0" encoding="utf-8"?>
<svg version="1.1" xmlns:xlink="http://www.w3.org/1999/xlink" width="12px" height="12px" viewBox="39 105  12 12" xmlns="http://www.w3.org/2000/svg">
  <path d="M 39.5 107  A 1.5 1.5 0 0 1 41 105.5 L 49 105.5  A 1.5 1.5 0 0 1 50.5 107 L 50.5 115  A 1.5 1.5 0 0 1 49 116.5 L 41 116.5  A 1.5 1.5 0 0 1 39.5 115 L 39.5 107  Z " fill-rule="nonzero" fill="#ffffff" stroke="none" />
  <path d="M 39.5 107  A 1.5 1.5 0 0 1 41 105.5 L 49 105.5  A 1.5 1.5 0 0 1 50.5 107 L 50.5 115  A 1.5 1.5 0 0 1 49 116.5 L 41 116.5  A 1.5 1.5 0 0 1 39.5 115 L 39.5 107  Z " stroke-width="1" stroke="#797979" fill="none" />
  <path d="M 41.5714285714286 111  L 44.1428571428571 113.571428571429  L 48.4285714285714 107.571428571429  " stroke-width="2.57142857142857" stroke="#797979" fill="none" />
</svg>