<?xml version="1.0" encoding="utf-8"?>
<svg version="1.1" xmlns:xlink="http://www.w3.org/1999/xlink" width="12px" height="12px" viewBox="188 443  12 12" xmlns="http://www.w3.org/2000/svg">
  <path d="M 188.5 445  A 1.5 1.5 0 0 1 190 443.5 L 198 443.5  A 1.5 1.5 0 0 1 199.5 445 L 199.5 453  A 1.5 1.5 0 0 1 198 454.5 L 190 454.5  A 1.5 1.5 0 0 1 188.5 453 L 188.5 445  Z " fill-rule="nonzero" fill="#f0f0f0" stroke="none" />
  <path d="M 188.5 445  A 1.5 1.5 0 0 1 190 443.5 L 198 443.5  A 1.5 1.5 0 0 1 199.5 445 L 199.5 453  A 1.5 1.5 0 0 1 198 454.5 L 190 454.5  A 1.5 1.5 0 0 1 188.5 453 L 188.5 445  Z " stroke-width="1" stroke="#c6c6c6" fill="none" />
</svg>