<?xml version="1.0" encoding="utf-8"?>
<svg version="1.1" xmlns:xlink="http://www.w3.org/1999/xlink" width="12px" height="12px" viewBox="205 773  12 12" xmlns="http://www.w3.org/2000/svg">
  <path d="M 205.5 775  A 1.5 1.5 0 0 1 207 773.5 L 215 773.5  A 1.5 1.5 0 0 1 216.5 775 L 216.5 783  A 1.5 1.5 0 0 1 215 784.5 L 207 784.5  A 1.5 1.5 0 0 1 205.5 783 L 205.5 775  Z " fill-rule="nonzero" fill="#f0f0f0" stroke="none" />
  <path d="M 205.5 775  A 1.5 1.5 0 0 1 207 773.5 L 215 773.5  A 1.5 1.5 0 0 1 216.5 775 L 216.5 783  A 1.5 1.5 0 0 1 215 784.5 L 207 784.5  A 1.5 1.5 0 0 1 205.5 783 L 205.5 775  Z " stroke-width="1" stroke="#797979" fill="none" />
</svg>