<?xml version="1.0" encoding="utf-8"?>
<svg version="1.1" xmlns:xlink="http://www.w3.org/1999/xlink" width="12px" height="12px" viewBox="188 414  12 12" xmlns="http://www.w3.org/2000/svg">
  <path d="M 188.5 416  A 1.5 1.5 0 0 1 190 414.5 L 198 414.5  A 1.5 1.5 0 0 1 199.5 416 L 199.5 424  A 1.5 1.5 0 0 1 198 425.5 L 190 425.5  A 1.5 1.5 0 0 1 188.5 424 L 188.5 416  Z " fill-rule="nonzero" fill="#f0f0f0" stroke="none" />
  <path d="M 188.5 416  A 1.5 1.5 0 0 1 190 414.5 L 198 414.5  A 1.5 1.5 0 0 1 199.5 416 L 199.5 424  A 1.5 1.5 0 0 1 198 425.5 L 190 425.5  A 1.5 1.5 0 0 1 188.5 424 L 188.5 416  Z " stroke-width="1" stroke="#d5d5d5" fill="none" />
</svg>