<?xml version="1.0" encoding="utf-8"?>
<svg version="1.1" xmlns:xlink="http://www.w3.org/1999/xlink" width="12px" height="12px" viewBox="205 768  12 12" xmlns="http://www.w3.org/2000/svg">
  <path d="M 205.5 770  A 1.5 1.5 0 0 1 207 768.5 L 215 768.5  A 1.5 1.5 0 0 1 216.5 770 L 216.5 778  A 1.5 1.5 0 0 1 215 779.5 L 207 779.5  A 1.5 1.5 0 0 1 205.5 778 L 205.5 770  Z " fill-rule="nonzero" fill="#ffffff" stroke="none" />
  <path d="M 205.5 770  A 1.5 1.5 0 0 1 207 768.5 L 215 768.5  A 1.5 1.5 0 0 1 216.5 770 L 216.5 778  A 1.5 1.5 0 0 1 215 779.5 L 207 779.5  A 1.5 1.5 0 0 1 205.5 778 L 205.5 770  Z " stroke-width="1" stroke="#797979" fill="none" />
  <path d="M 207.571428571429 774  L 210.142857142857 776.571428571429  L 214.428571428571 770.571428571429  " stroke-width="2.57142857142857" stroke="#797979" fill="none" />
</svg>