<?xml version="1.0" encoding="utf-8"?>
<svg version="1.1" xmlns:xlink="http://www.w3.org/1999/xlink" width="12px" height="12px" viewBox="205 797  12 12" xmlns="http://www.w3.org/2000/svg">
  <path d="M 205.5 799  A 1.5 1.5 0 0 1 207 797.5 L 215 797.5  A 1.5 1.5 0 0 1 216.5 799 L 216.5 807  A 1.5 1.5 0 0 1 215 808.5 L 207 808.5  A 1.5 1.5 0 0 1 205.5 807 L 205.5 799  Z " fill-rule="nonzero" fill="#ffffff" stroke="none" />
  <path d="M 205.5 799  A 1.5 1.5 0 0 1 207 797.5 L 215 797.5  A 1.5 1.5 0 0 1 216.5 799 L 216.5 807  A 1.5 1.5 0 0 1 215 808.5 L 207 808.5  A 1.5 1.5 0 0 1 205.5 807 L 205.5 799  Z " stroke-width="1" stroke="#797979" fill="none" />
  <path d="M 207.571428571429 803  L 210.142857142857 805.571428571429  L 214.428571428571 799.571428571429  " stroke-width="2.57142857142857" stroke="#797979" fill="none" />
</svg>