<?xml version="1.0" encoding="utf-8"?>
<svg version="1.1" xmlns:xlink="http://www.w3.org/1999/xlink" width="12px" height="12px" viewBox="426 1087  12 12" xmlns="http://www.w3.org/2000/svg">
  <path d="M 432 1087  C 435.36 1087  438 1089.64  438 1093  C 438 1096.36  435.36 1099  432 1099  C 428.64 1099  426 1096.36  426 1093  C 426 1089.64  428.64 1087  432 1087  Z " fill-rule="nonzero" fill="#ffffff" stroke="none" />
  <path d="M 432 1087.5  C 435.08 1087.5  437.5 1089.92  437.5 1093  C 437.5 1096.08  435.08 1098.5  432 1098.5  C 428.92 1098.5  426.5 1096.08  426.5 1093  C 426.5 1089.92  428.92 1087.5  432 1087.5  Z " stroke-width="1" stroke="#797979" fill="none" />
  <path d="M 432 1096  C 430.32 1096  429 1094.68  429 1093  C 429 1091.32  430.32 1090  432 1090  C 433.68 1090  435 1091.32  435 1093  C 435 1094.68  433.68 1096  432 1096  " fill-rule="nonzero" fill="#797979" stroke="none" />
</svg>