<?xml version="1.0" encoding="utf-8"?>
<svg version="1.1" xmlns:xlink="http://www.w3.org/1999/xlink" width="12px" height="12px" viewBox="326 1087  12 12" xmlns="http://www.w3.org/2000/svg">
  <path d="M 332 1087  C 335.36 1087  338 1089.64  338 1093  C 338 1096.36  335.36 1099  332 1099  C 328.64 1099  326 1096.36  326 1093  C 326 1089.64  328.64 1087  332 1087  Z " fill-rule="nonzero" fill="#ffffff" stroke="none" />
  <path d="M 332 1087.5  C 335.08 1087.5  337.5 1089.92  337.5 1093  C 337.5 1096.08  335.08 1098.5  332 1098.5  C 328.92 1098.5  326.5 1096.08  326.5 1093  C 326.5 1089.92  328.92 1087.5  332 1087.5  Z " stroke-width="1" stroke="#797979" fill="none" />
  <path d="M 332 1096  C 330.32 1096  329 1094.68  329 1093  C 329 1091.32  330.32 1090  332 1090  C 333.68 1090  335 1091.32  335 1093  C 335 1094.68  333.68 1096  332 1096  " fill-rule="nonzero" fill="#797979" stroke="none" />
</svg>