<?xml version="1.0" encoding="utf-8"?>
<svg version="1.1" xmlns:xlink="http://www.w3.org/1999/xlink" width="12px" height="12px" viewBox="519 1202  12 12" xmlns="http://www.w3.org/2000/svg">
  <path d="M 525 1202  C 528.36 1202  531 1204.64  531 1208  C 531 1211.36  528.36 1214  525 1214  C 521.64 1214  519 1211.36  519 1208  C 519 1204.64  521.64 1202  525 1202  Z " fill-rule="nonzero" fill="#ffffff" stroke="none" />
  <path d="M 525 1202.5  C 528.08 1202.5  530.5 1204.92  530.5 1208  C 530.5 1211.08  528.08 1213.5  525 1213.5  C 521.92 1213.5  519.5 1211.08  519.5 1208  C 519.5 1204.92  521.92 1202.5  525 1202.5  Z " stroke-width="1" stroke="#797979" fill="none" />
  <path d="M 525 1211  C 523.32 1211  522 1209.68  522 1208  C 522 1206.32  523.32 1205  525 1205  C 526.68 1205  528 1206.32  528 1208  C 528 1209.68  526.68 1211  525 1211  " fill-rule="nonzero" fill="#797979" stroke="none" />
</svg>