<?xml version="1.0" encoding="utf-8"?>
<svg version="1.1" xmlns:xlink="http://www.w3.org/1999/xlink" width="12px" height="12px" viewBox="368 1202  12 12" xmlns="http://www.w3.org/2000/svg">
  <path d="M 374 1202  C 377.36 1202  380 1204.64  380 1208  C 380 1211.36  377.36 1214  374 1214  C 370.64 1214  368 1211.36  368 1208  C 368 1204.64  370.64 1202  374 1202  Z " fill-rule="nonzero" fill="#ffffff" stroke="none" />
  <path d="M 374 1202.5  C 377.08 1202.5  379.5 1204.92  379.5 1208  C 379.5 1211.08  377.08 1213.5  374 1213.5  C 370.92 1213.5  368.5 1211.08  368.5 1208  C 368.5 1204.92  370.92 1202.5  374 1202.5  Z " stroke-width="1" stroke="#797979" fill="none" />
  <path d="M 374 1211  C 372.32 1211  371 1209.68  371 1208  C 371 1206.32  372.32 1205  374 1205  C 375.68 1205  377 1206.32  377 1208  C 377 1209.68  375.68 1211  374 1211  " fill-rule="nonzero" fill="#797979" stroke="none" />
</svg>