<?xml version="1.0" encoding="utf-8"?>
<svg version="1.1" xmlns:xlink="http://www.w3.org/1999/xlink" width="15px" height="15px" viewBox="1030 1795  15 15" xmlns="http://www.w3.org/2000/svg">
  <path d="M 1030.5 1797  A 1.5 1.5 0 0 1 1032 1795.5 L 1043 1795.5  A 1.5 1.5 0 0 1 1044.5 1797 L 1044.5 1808  A 1.5 1.5 0 0 1 1043 1809.5 L 1032 1809.5  A 1.5 1.5 0 0 1 1030.5 1808 L 1030.5 1797  Z " fill-rule="nonzero" fill="#f0f0f0" stroke="none" />
  <path d="M 1030.5 1797  A 1.5 1.5 0 0 1 1032 1795.5 L 1043 1795.5  A 1.5 1.5 0 0 1 1044.5 1797 L 1044.5 1808  A 1.5 1.5 0 0 1 1043 1809.5 L 1032 1809.5  A 1.5 1.5 0 0 1 1030.5 1808 L 1030.5 1797  Z " stroke-width="1" stroke="#c6c6c6" fill="none" />
  <path d="M 1033.21428571429 1802.5  L 1036.42857142857 1805.71428571429  L 1041.78571428571 1798.21428571429  " stroke-width="3.21428571428571" stroke="#c6c6c6" fill="none" />
</svg>