<?xml version="1.0" encoding="utf-8"?>
<svg version="1.1" xmlns:xlink="http://www.w3.org/1999/xlink" width="15px" height="15px" viewBox="934 1795  15 15" xmlns="http://www.w3.org/2000/svg">
  <path d="M 934.5 1797  A 1.5 1.5 0 0 1 936 1795.5 L 947 1795.5  A 1.5 1.5 0 0 1 948.5 1797 L 948.5 1808  A 1.5 1.5 0 0 1 947 1809.5 L 936 1809.5  A 1.5 1.5 0 0 1 934.5 1808 L 934.5 1797  Z " fill-rule="nonzero" fill="#ffffff" stroke="none" />
  <path d="M 934.5 1797  A 1.5 1.5 0 0 1 936 1795.5 L 947 1795.5  A 1.5 1.5 0 0 1 948.5 1797 L 948.5 1808  A 1.5 1.5 0 0 1 947 1809.5 L 936 1809.5  A 1.5 1.5 0 0 1 934.5 1808 L 934.5 1797  Z " stroke-width="1" stroke="#c6c6c6" fill="none" />
</svg>