<?xml version="1.0" encoding="utf-8"?>
<svg version="1.1" xmlns:xlink="http://www.w3.org/1999/xlink" width="12px" height="12px" viewBox="368 964  12 12" xmlns="http://www.w3.org/2000/svg">
  <path d="M 374 964  C 377.36 964  380 966.64  380 970  C 380 973.36  377.36 976  374 976  C 370.64 976  368 973.36  368 970  C 368 966.64  370.64 964  374 964  Z " fill-rule="nonzero" fill="#ffffff" stroke="none" />
  <path d="M 374 964.5  C 377.08 964.5  379.5 966.92  379.5 970  C 379.5 973.08  377.08 975.5  374 975.5  C 370.92 975.5  368.5 973.08  368.5 970  C 368.5 966.92  370.92 964.5  374 964.5  Z " stroke-width="1" stroke="#797979" fill="none" />
  <path d="M 374 973  C 372.32 973  371 971.68  371 970  C 371 968.32  372.32 967  374 967  C 375.68 967  377 968.32  377 970  C 377 971.68  375.68 973  374 973  " fill-rule="nonzero" fill="#797979" stroke="none" />
</svg>