<?xml version="1.0" encoding="utf-8"?>
<svg version="1.1" xmlns:xlink="http://www.w3.org/1999/xlink" width="15px" height="15px" viewBox="1030 1521  15 15" xmlns="http://www.w3.org/2000/svg">
  <path d="M 1030.5 1523  A 1.5 1.5 0 0 1 1032 1521.5 L 1043 1521.5  A 1.5 1.5 0 0 1 1044.5 1523 L 1044.5 1534  A 1.5 1.5 0 0 1 1043 1535.5 L 1032 1535.5  A 1.5 1.5 0 0 1 1030.5 1534 L 1030.5 1523  Z " fill-rule="nonzero" fill="#ffffff" stroke="none" />
  <path d="M 1030.5 1523  A 1.5 1.5 0 0 1 1032 1521.5 L 1043 1521.5  A 1.5 1.5 0 0 1 1044.5 1523 L 1044.5 1534  A 1.5 1.5 0 0 1 1043 1535.5 L 1032 1535.5  A 1.5 1.5 0 0 1 1030.5 1534 L 1030.5 1523  Z " stroke-width="1" stroke="#c6c6c6" fill="none" />
</svg>