<?xml version="1.0" encoding="utf-8"?>
<svg version="1.1" xmlns:xlink="http://www.w3.org/1999/xlink" width="12px" height="12px" viewBox="194 169  12 12" xmlns="http://www.w3.org/2000/svg">
  <path d="M 194.5 171  A 1.5 1.5 0 0 1 196 169.5 L 204 169.5  A 1.5 1.5 0 0 1 205.5 171 L 205.5 179  A 1.5 1.5 0 0 1 204 180.5 L 196 180.5  A 1.5 1.5 0 0 1 194.5 179 L 194.5 171  Z " fill-rule="nonzero" fill="#ffffff" stroke="none" />
  <path d="M 194.5 171  A 1.5 1.5 0 0 1 196 169.5 L 204 169.5  A 1.5 1.5 0 0 1 205.5 171 L 205.5 179  A 1.5 1.5 0 0 1 204 180.5 L 196 180.5  A 1.5 1.5 0 0 1 194.5 179 L 194.5 171  Z " stroke-width="1" stroke="#797979" fill="none" />
  <path d="M 196.571428571429 175  L 199.142857142857 177.571428571429  L 203.428571428571 171.571428571429  " stroke-width="2.57142857142857" stroke="#797979" fill="none" />
</svg>