<?xml version="1.0" encoding="utf-8"?>
<svg version="1.1" xmlns:xlink="http://www.w3.org/1999/xlink" width="12px" height="12px" viewBox="194 200  12 12" xmlns="http://www.w3.org/2000/svg">
  <path d="M 194.5 202  A 1.5 1.5 0 0 1 196 200.5 L 204 200.5  A 1.5 1.5 0 0 1 205.5 202 L 205.5 210  A 1.5 1.5 0 0 1 204 211.5 L 196 211.5  A 1.5 1.5 0 0 1 194.5 210 L 194.5 202  Z " fill-rule="nonzero" fill="#ffffff" stroke="none" />
  <path d="M 194.5 202  A 1.5 1.5 0 0 1 196 200.5 L 204 200.5  A 1.5 1.5 0 0 1 205.5 202 L 205.5 210  A 1.5 1.5 0 0 1 204 211.5 L 196 211.5  A 1.5 1.5 0 0 1 194.5 210 L 194.5 202  Z " stroke-width="1" stroke="#797979" fill="none" />
  <path d="M 196.571428571429 206  L 199.142857142857 208.571428571429  L 203.428571428571 202.571428571429  " stroke-width="2.57142857142857" stroke="#797979" fill="none" />
</svg>