<?xml version="1.0" encoding="utf-8"?>
<svg version="1.1" xmlns:xlink="http://www.w3.org/1999/xlink" width="12px" height="12px" viewBox="10 39  12 12" xmlns="http://www.w3.org/2000/svg">
  <path d="M 10.5 41  A 1.5 1.5 0 0 1 12 39.5 L 20 39.5  A 1.5 1.5 0 0 1 21.5 41 L 21.5 49  A 1.5 1.5 0 0 1 20 50.5 L 12 50.5  A 1.5 1.5 0 0 1 10.5 49 L 10.5 41  Z " fill-rule="nonzero" fill="#f0f0f0" stroke="none" />
  <path d="M 10.5 41  A 1.5 1.5 0 0 1 12 39.5 L 20 39.5  A 1.5 1.5 0 0 1 21.5 41 L 21.5 49  A 1.5 1.5 0 0 1 20 50.5 L 12 50.5  A 1.5 1.5 0 0 1 10.5 49 L 10.5 41  Z " stroke-width="1" stroke="#b3b3b3" fill="none" />
</svg>