<?xml version="1.0" encoding="utf-8"?>
<svg version="1.1" xmlns:xlink="http://www.w3.org/1999/xlink" width="12px" height="12px" viewBox="287 309  12 12" xmlns="http://www.w3.org/2000/svg">
  <path d="M 287.5 311  A 1.5 1.5 0 0 1 289 309.5 L 297 309.5  A 1.5 1.5 0 0 1 298.5 311 L 298.5 319  A 1.5 1.5 0 0 1 297 320.5 L 289 320.5  A 1.5 1.5 0 0 1 287.5 319 L 287.5 311  Z " fill-rule="nonzero" fill="#f0f0f0" stroke="none" />
  <path d="M 287.5 311  A 1.5 1.5 0 0 1 289 309.5 L 297 309.5  A 1.5 1.5 0 0 1 298.5 311 L 298.5 319  A 1.5 1.5 0 0 1 297 320.5 L 289 320.5  A 1.5 1.5 0 0 1 287.5 319 L 287.5 311  Z " stroke-width="1" stroke="#797979" fill="none" />
</svg>