<?xml version="1.0" encoding="utf-8"?>
<svg version="1.1" xmlns:xlink="http://www.w3.org/1999/xlink" width="12px" height="12px" viewBox="840 1493  12 12" xmlns="http://www.w3.org/2000/svg">
  <path d="M 840.5 1495  A 1.5 1.5 0 0 1 842 1493.5 L 850 1493.5  A 1.5 1.5 0 0 1 851.5 1495 L 851.5 1503  A 1.5 1.5 0 0 1 850 1504.5 L 842 1504.5  A 1.5 1.5 0 0 1 840.5 1503 L 840.5 1495  Z " fill-rule="nonzero" fill="#f0f0f0" stroke="none" />
  <path d="M 840.5 1495  A 1.5 1.5 0 0 1 842 1493.5 L 850 1493.5  A 1.5 1.5 0 0 1 851.5 1495 L 851.5 1503  A 1.5 1.5 0 0 1 850 1504.5 L 842 1504.5  A 1.5 1.5 0 0 1 840.5 1503 L 840.5 1495  Z " stroke-width="1" stroke="#797979" fill="none" />
  <path d="M 842.571428571429 1499  L 845.142857142857 1501.57142857143  L 849.428571428571 1495.57142857143  " stroke-width="2.57142857142857" stroke="#797979" fill="none" />
</svg>