<?xml version="1.0" encoding="utf-8"?>
<svg version="1.1" xmlns:xlink="http://www.w3.org/1999/xlink" width="12px" height="12px" viewBox="840 1420  12 12" xmlns="http://www.w3.org/2000/svg">
  <path d="M 840.5 1422  A 1.5 1.5 0 0 1 842 1420.5 L 850 1420.5  A 1.5 1.5 0 0 1 851.5 1422 L 851.5 1430  A 1.5 1.5 0 0 1 850 1431.5 L 842 1431.5  A 1.5 1.5 0 0 1 840.5 1430 L 840.5 1422  Z " fill-rule="nonzero" fill="#ffffff" stroke="none" />
  <path d="M 840.5 1422  A 1.5 1.5 0 0 1 842 1420.5 L 850 1420.5  A 1.5 1.5 0 0 1 851.5 1422 L 851.5 1430  A 1.5 1.5 0 0 1 850 1431.5 L 842 1431.5  A 1.5 1.5 0 0 1 840.5 1430 L 840.5 1422  Z " stroke-width="1" stroke="#797979" fill="none" />
  <path d="M 842.571428571429 1426  L 845.142857142857 1428.57142857143  L 849.428571428571 1422.57142857143  " stroke-width="2.57142857142857" stroke="#797979" fill="none" />
</svg>