<?xml version="1.0" encoding="utf-8"?>
<svg version="1.1" xmlns:xlink="http://www.w3.org/1999/xlink" width="12px" height="12px" viewBox="987 1345  12 12" xmlns="http://www.w3.org/2000/svg">
  <path d="M 987.5 1347  A 1.5 1.5 0 0 1 989 1345.5 L 997 1345.5  A 1.5 1.5 0 0 1 998.5 1347 L 998.5 1355  A 1.5 1.5 0 0 1 997 1356.5 L 989 1356.5  A 1.5 1.5 0 0 1 987.5 1355 L 987.5 1347  Z " fill-rule="nonzero" fill="#ffffff" stroke="none" />
  <path d="M 987.5 1347  A 1.5 1.5 0 0 1 989 1345.5 L 997 1345.5  A 1.5 1.5 0 0 1 998.5 1347 L 998.5 1355  A 1.5 1.5 0 0 1 997 1356.5 L 989 1356.5  A 1.5 1.5 0 0 1 987.5 1355 L 987.5 1347  Z " stroke-width="1" stroke="#797979" fill="none" />
</svg>