<?xml version="1.0" encoding="utf-8"?>
<svg version="1.1" xmlns:xlink="http://www.w3.org/1999/xlink" width="12px" height="12px" viewBox="914 1420  12 12" xmlns="http://www.w3.org/2000/svg">
  <path d="M 914.5 1422  A 1.5 1.5 0 0 1 916 1420.5 L 924 1420.5  A 1.5 1.5 0 0 1 925.5 1422 L 925.5 1430  A 1.5 1.5 0 0 1 924 1431.5 L 916 1431.5  A 1.5 1.5 0 0 1 914.5 1430 L 914.5 1422  Z " fill-rule="nonzero" fill="#f0f0f0" stroke="none" />
  <path d="M 914.5 1422  A 1.5 1.5 0 0 1 916 1420.5 L 924 1420.5  A 1.5 1.5 0 0 1 925.5 1422 L 925.5 1430  A 1.5 1.5 0 0 1 924 1431.5 L 916 1431.5  A 1.5 1.5 0 0 1 914.5 1430 L 914.5 1422  Z " stroke-width="1" stroke="#797979" fill="none" />
</svg>