<?xml version="1.0" encoding="utf-8"?>
<svg version="1.1" xmlns:xlink="http://www.w3.org/1999/xlink" width="15px" height="15px" viewBox="934 1566  15 15" xmlns="http://www.w3.org/2000/svg">
  <path d="M 934.5 1568  A 1.5 1.5 0 0 1 936 1566.5 L 947 1566.5  A 1.5 1.5 0 0 1 948.5 1568 L 948.5 1579  A 1.5 1.5 0 0 1 947 1580.5 L 936 1580.5  A 1.5 1.5 0 0 1 934.5 1579 L 934.5 1568  Z " fill-rule="nonzero" fill="#f0f0f0" stroke="none" />
  <path d="M 934.5 1568  A 1.5 1.5 0 0 1 936 1566.5 L 947 1566.5  A 1.5 1.5 0 0 1 948.5 1568 L 948.5 1579  A 1.5 1.5 0 0 1 947 1580.5 L 936 1580.5  A 1.5 1.5 0 0 1 934.5 1579 L 934.5 1568  Z " stroke-width="1" stroke="#6a6a6a" fill="none" />
</svg>