<?xml version="1.0" encoding="utf-8"?>
<svg version="1.1" xmlns:xlink="http://www.w3.org/1999/xlink" width="12px" height="12px" viewBox="178 169  12 12" xmlns="http://www.w3.org/2000/svg">
  <path d="M 178.5 171  A 1.5 1.5 0 0 1 180 169.5 L 188 169.5  A 1.5 1.5 0 0 1 189.5 171 L 189.5 179  A 1.5 1.5 0 0 1 188 180.5 L 180 180.5  A 1.5 1.5 0 0 1 178.5 179 L 178.5 171  Z " fill-rule="nonzero" fill="#f0f0f0" stroke="none" />
  <path d="M 178.5 171  A 1.5 1.5 0 0 1 180 169.5 L 188 169.5  A 1.5 1.5 0 0 1 189.5 171 L 189.5 179  A 1.5 1.5 0 0 1 188 180.5 L 180 180.5  A 1.5 1.5 0 0 1 178.5 179 L 178.5 171  Z " stroke-width="1" stroke="#797979" fill="none" />
</svg>