<?xml version="1.0" encoding="utf-8"?>
<svg version="1.1" xmlns:xlink="http://www.w3.org/1999/xlink" width="12px" height="12px" viewBox="178 200  12 12" xmlns="http://www.w3.org/2000/svg">
  <path d="M 178.5 202  A 1.5 1.5 0 0 1 180 200.5 L 188 200.5  A 1.5 1.5 0 0 1 189.5 202 L 189.5 210  A 1.5 1.5 0 0 1 188 211.5 L 180 211.5  A 1.5 1.5 0 0 1 178.5 210 L 178.5 202  Z " fill-rule="nonzero" fill="#ffffff" stroke="none" />
  <path d="M 178.5 202  A 1.5 1.5 0 0 1 180 200.5 L 188 200.5  A 1.5 1.5 0 0 1 189.5 202 L 189.5 210  A 1.5 1.5 0 0 1 188 211.5 L 180 211.5  A 1.5 1.5 0 0 1 178.5 210 L 178.5 202  Z " stroke-width="1" stroke="#797979" fill="none" />
</svg>