<?xml version="1.0" encoding="utf-8"?>
<svg version="1.1" xmlns:xlink="http://www.w3.org/1999/xlink" width="12px" height="12px" viewBox="1146 774  12 12" xmlns="http://www.w3.org/2000/svg">
  <path d="M 1146.5 776  A 1.5 1.5 0 0 1 1148 774.5 L 1156 774.5  A 1.5 1.5 0 0 1 1157.5 776 L 1157.5 784  A 1.5 1.5 0 0 1 1156 785.5 L 1148 785.5  A 1.5 1.5 0 0 1 1146.5 784 L 1146.5 776  Z " fill-rule="nonzero" fill="#ffffff" stroke="none" />
  <path d="M 1146.5 776  A 1.5 1.5 0 0 1 1148 774.5 L 1156 774.5  A 1.5 1.5 0 0 1 1157.5 776 L 1157.5 784  A 1.5 1.5 0 0 1 1156 785.5 L 1148 785.5  A 1.5 1.5 0 0 1 1146.5 784 L 1146.5 776  Z " stroke-width="1" stroke="#797979" fill="none" />
  <path d="M 1148.57142857143 780  L 1151.14285714286 782.571428571429  L 1155.42857142857 776.571428571429  " stroke-width="2.57142857142857" stroke="#797979" fill="none" />
</svg>