<?xml version="1.0" encoding="utf-8"?>
<svg version="1.1" xmlns:xlink="http://www.w3.org/1999/xlink" width="12px" height="12px" viewBox="1146 1630  12 12" xmlns="http://www.w3.org/2000/svg">
  <path d="M 1146.5 1632  A 1.5 1.5 0 0 1 1148 1630.5 L 1156 1630.5  A 1.5 1.5 0 0 1 1157.5 1632 L 1157.5 1640  A 1.5 1.5 0 0 1 1156 1641.5 L 1148 1641.5  A 1.5 1.5 0 0 1 1146.5 1640 L 1146.5 1632  Z " fill-rule="nonzero" fill="#ffffff" stroke="none" />
  <path d="M 1146.5 1632  A 1.5 1.5 0 0 1 1148 1630.5 L 1156 1630.5  A 1.5 1.5 0 0 1 1157.5 1632 L 1157.5 1640  A 1.5 1.5 0 0 1 1156 1641.5 L 1148 1641.5  A 1.5 1.5 0 0 1 1146.5 1640 L 1146.5 1632  Z " stroke-width="1" stroke="#797979" fill="none" />
</svg>