<?xml version="1.0" encoding="utf-8"?>
<svg version="1.1" xmlns:xlink="http://www.w3.org/1999/xlink" width="12px" height="12px" viewBox="392 246  12 12" xmlns="http://www.w3.org/2000/svg">
  <path d="M 398 246  C 401.36 246  404 248.64  404 252  C 404 255.36  401.36 258  398 258  C 394.64 258  392 255.36  392 252  C 392 248.64  394.64 246  398 246  Z " fill-rule="nonzero" fill="#ffffff" stroke="none" />
  <path d="M 398 246.5  C 401.08 246.5  403.5 248.92  403.5 252  C 403.5 255.08  401.08 257.5  398 257.5  C 394.92 257.5  392.5 255.08  392.5 252  C 392.5 248.92  394.92 246.5  398 246.5  Z " stroke-width="1" stroke="#797979" fill="none" />
  <path d="M 398 255  C 396.32 255  395 253.68  395 252  C 395 250.32  396.32 249  398 249  C 399.68 249  401 250.32  401 252  C 401 253.68  399.68 255  398 255  " fill-rule="nonzero" fill="#797979" stroke="none" />
</svg>