<?xml version="1.0" encoding="utf-8"?>
<svg version="1.1" xmlns:xlink="http://www.w3.org/1999/xlink" width="12px" height="12px" viewBox="1146 1557  12 12" xmlns="http://www.w3.org/2000/svg">
  <path d="M 1146.5 1559  A 1.5 1.5 0 0 1 1148 1557.5 L 1156 1557.5  A 1.5 1.5 0 0 1 1157.5 1559 L 1157.5 1567  A 1.5 1.5 0 0 1 1156 1568.5 L 1148 1568.5  A 1.5 1.5 0 0 1 1146.5 1567 L 1146.5 1559  Z " fill-rule="nonzero" fill="#ffffff" stroke="none" />
  <path d="M 1146.5 1559  A 1.5 1.5 0 0 1 1148 1557.5 L 1156 1557.5  A 1.5 1.5 0 0 1 1157.5 1559 L 1157.5 1567  A 1.5 1.5 0 0 1 1156 1568.5 L 1148 1568.5  A 1.5 1.5 0 0 1 1146.5 1567 L 1146.5 1559  Z " stroke-width="1" stroke="#797979" fill="none" />
  <path d="M 1148.57142857143 1563  L 1151.14285714286 1565.57142857143  L 1155.42857142857 1559.57142857143  " stroke-width="2.57142857142857" stroke="#797979" fill="none" />
</svg>