<?xml version="1.0" encoding="utf-8"?>
<svg version="1.1" xmlns:xlink="http://www.w3.org/1999/xlink" width="12px" height="12px" viewBox="1146 1937  12 12" xmlns="http://www.w3.org/2000/svg">
  <path d="M 1146.5 1939  A 1.5 1.5 0 0 1 1148 1937.5 L 1156 1937.5  A 1.5 1.5 0 0 1 1157.5 1939 L 1157.5 1947  A 1.5 1.5 0 0 1 1156 1948.5 L 1148 1948.5  A 1.5 1.5 0 0 1 1146.5 1947 L 1146.5 1939  Z " fill-rule="nonzero" fill="#f0f0f0" stroke="none" />
  <path d="M 1146.5 1939  A 1.5 1.5 0 0 1 1148 1937.5 L 1156 1937.5  A 1.5 1.5 0 0 1 1157.5 1939 L 1157.5 1947  A 1.5 1.5 0 0 1 1156 1948.5 L 1148 1948.5  A 1.5 1.5 0 0 1 1146.5 1947 L 1146.5 1939  Z " stroke-width="1" stroke="#797979" fill="none" />
</svg>