<?xml version="1.0" encoding="utf-8"?>
<svg version="1.1" xmlns:xlink="http://www.w3.org/1999/xlink" width="12px" height="12px" viewBox="1146 2510  12 12" xmlns="http://www.w3.org/2000/svg">
  <path d="M 1146.5 2512  A 1.5 1.5 0 0 1 1148 2510.5 L 1156 2510.5  A 1.5 1.5 0 0 1 1157.5 2512 L 1157.5 2520  A 1.5 1.5 0 0 1 1156 2521.5 L 1148 2521.5  A 1.5 1.5 0 0 1 1146.5 2520 L 1146.5 2512  Z " fill-rule="nonzero" fill="#ffffff" stroke="none" />
  <path d="M 1146.5 2512  A 1.5 1.5 0 0 1 1148 2510.5 L 1156 2510.5  A 1.5 1.5 0 0 1 1157.5 2512 L 1157.5 2520  A 1.5 1.5 0 0 1 1156 2521.5 L 1148 2521.5  A 1.5 1.5 0 0 1 1146.5 2520 L 1146.5 2512  Z " stroke-width="1" stroke="#797979" fill="none" />
</svg>