<?xml version="1.0" encoding="utf-8"?>
<svg version="1.1" xmlns:xlink="http://www.w3.org/1999/xlink" width="12px" height="12px" viewBox="473 410  12 12" xmlns="http://www.w3.org/2000/svg">
  <path d="M 479 410  C 482.36 410  485 412.64  485 416  C 485 419.36  482.36 422  479 422  C 475.64 422  473 419.36  473 416  C 473 412.64  475.64 410  479 410  Z " fill-rule="nonzero" fill="#ffffff" stroke="none" />
  <path d="M 479 410.5  C 482.08 410.5  484.5 412.92  484.5 416  C 484.5 419.08  482.08 421.5  479 421.5  C 475.92 421.5  473.5 419.08  473.5 416  C 473.5 412.92  475.92 410.5  479 410.5  Z " stroke-width="1" stroke="#797979" fill="none" />
  <path d="M 479 419  C 477.32 419  476 417.68  476 416  C 476 414.32  477.32 413  479 413  C 480.68 413  482 414.32  482 416  C 482 417.68  480.68 419  479 419  " fill-rule="nonzero" fill="#797979" stroke="none" />
</svg>