<?xml version="1.0" encoding="utf-8"?>
<svg version="1.1" xmlns:xlink="http://www.w3.org/1999/xlink" width="12px" height="12px" viewBox="393 410  12 12" xmlns="http://www.w3.org/2000/svg">
  <path d="M 399 410  C 402.36 410  405 412.64  405 416  C 405 419.36  402.36 422  399 422  C 395.64 422  393 419.36  393 416  C 393 412.64  395.64 410  399 410  Z " fill-rule="nonzero" fill="#ffffff" stroke="none" />
  <path d="M 399 410.5  C 402.08 410.5  404.5 412.92  404.5 416  C 404.5 419.08  402.08 421.5  399 421.5  C 395.92 421.5  393.5 419.08  393.5 416  C 393.5 412.92  395.92 410.5  399 410.5  Z " stroke-width="1" stroke="#797979" fill="none" />
  <path d="M 399 419  C 397.32 419  396 417.68  396 416  C 396 414.32  397.32 413  399 413  C 400.68 413  402 414.32  402 416  C 402 417.68  400.68 419  399 419  " fill-rule="nonzero" fill="#797979" stroke="none" />
</svg>