<?xml version="1.0" encoding="utf-8"?>
<svg version="1.1" xmlns:xlink="http://www.w3.org/1999/xlink" width="12px" height="12px" viewBox="1146 184  12 12" xmlns="http://www.w3.org/2000/svg">
  <path d="M 1146.5 186  A 1.5 1.5 0 0 1 1148 184.5 L 1156 184.5  A 1.5 1.5 0 0 1 1157.5 186 L 1157.5 194  A 1.5 1.5 0 0 1 1156 195.5 L 1148 195.5  A 1.5 1.5 0 0 1 1146.5 194 L 1146.5 186  Z " fill-rule="nonzero" fill="#f0f0f0" stroke="none" />
  <path d="M 1146.5 186  A 1.5 1.5 0 0 1 1148 184.5 L 1156 184.5  A 1.5 1.5 0 0 1 1157.5 186 L 1157.5 194  A 1.5 1.5 0 0 1 1156 195.5 L 1148 195.5  A 1.5 1.5 0 0 1 1146.5 194 L 1146.5 186  Z " stroke-width="1" stroke="#797979" fill="none" />
</svg>