<?xml version="1.0" encoding="utf-8"?>
<svg version="1.1" xmlns:xlink="http://www.w3.org/1999/xlink" width="12px" height="12px" viewBox="183 162  12 12" xmlns="http://www.w3.org/2000/svg">
  <path d="M 189 162  C 192.36 162  195 164.64  195 168  C 195 171.36  192.36 174  189 174  C 185.64 174  183 171.36  183 168  C 183 164.64  185.64 162  189 162  Z " fill-rule="nonzero" fill="#ffffff" stroke="none" />
  <path d="M 189 162.5  C 192.08 162.5  194.5 164.92  194.5 168  C 194.5 171.08  192.08 173.5  189 173.5  C 185.92 173.5  183.5 171.08  183.5 168  C 183.5 164.92  185.92 162.5  189 162.5  Z " stroke-width="1" stroke="#797979" fill="none" />
  <path d="M 189 171  C 187.32 171  186 169.68  186 168  C 186 166.32  187.32 165  189 165  C 190.68 165  192 166.32  192 168  C 192 169.68  190.68 171  189 171  " fill-rule="nonzero" fill="#797979" stroke="none" />
</svg>