<?xml version="1.0" encoding="utf-8"?>
<svg version="1.1" xmlns:xlink="http://www.w3.org/1999/xlink" width="12px" height="12px" viewBox="442 290  12 12" xmlns="http://www.w3.org/2000/svg">
  <path d="M 442.5 292  A 1.5 1.5 0 0 1 444 290.5 L 452 290.5  A 1.5 1.5 0 0 1 453.5 292 L 453.5 300  A 1.5 1.5 0 0 1 452 301.5 L 444 301.5  A 1.5 1.5 0 0 1 442.5 300 L 442.5 292  Z " fill-rule="nonzero" fill="#ffffff" stroke="none" />
  <path d="M 442.5 292  A 1.5 1.5 0 0 1 444 290.5 L 452 290.5  A 1.5 1.5 0 0 1 453.5 292 L 453.5 300  A 1.5 1.5 0 0 1 452 301.5 L 444 301.5  A 1.5 1.5 0 0 1 442.5 300 L 442.5 292  Z " stroke-width="1" stroke="#797979" fill="none" />
</svg>