<?xml version="1.0" encoding="utf-8"?>
<svg version="1.1" xmlns:xlink="http://www.w3.org/1999/xlink" width="12px" height="12px" viewBox="97 97  12 12" xmlns="http://www.w3.org/2000/svg">
  <path d="M 97.5 99  A 1.5 1.5 0 0 1 99 97.5 L 107 97.5  A 1.5 1.5 0 0 1 108.5 99 L 108.5 107  A 1.5 1.5 0 0 1 107 108.5 L 99 108.5  A 1.5 1.5 0 0 1 97.5 107 L 97.5 99  Z " fill-rule="nonzero" fill="#f0f0f0" stroke="none" />
  <path d="M 97.5 99  A 1.5 1.5 0 0 1 99 97.5 L 107 97.5  A 1.5 1.5 0 0 1 108.5 99 L 108.5 107  A 1.5 1.5 0 0 1 107 108.5 L 99 108.5  A 1.5 1.5 0 0 1 97.5 107 L 97.5 99  Z " stroke-width="1" stroke="#797979" fill="none" />
</svg>