<?xml version="1.0" encoding="utf-8"?>
<svg version="1.1" xmlns:xlink="http://www.w3.org/1999/xlink" width="12px" height="12px" viewBox="470 432  12 12" xmlns="http://www.w3.org/2000/svg">
  <path d="M 470.5 434  A 1.5 1.5 0 0 1 472 432.5 L 480 432.5  A 1.5 1.5 0 0 1 481.5 434 L 481.5 442  A 1.5 1.5 0 0 1 480 443.5 L 472 443.5  A 1.5 1.5 0 0 1 470.5 442 L 470.5 434  Z " fill-rule="nonzero" fill="#ffffff" stroke="none" />
  <path d="M 470.5 434  A 1.5 1.5 0 0 1 472 432.5 L 480 432.5  A 1.5 1.5 0 0 1 481.5 434 L 481.5 442  A 1.5 1.5 0 0 1 480 443.5 L 472 443.5  A 1.5 1.5 0 0 1 470.5 442 L 470.5 434  Z " stroke-width="1" stroke="#797979" fill="none" />
</svg>