<?xml version="1.0" encoding="utf-8"?>
<svg version="1.1" xmlns:xlink="http://www.w3.org/1999/xlink" width="12px" height="12px" viewBox="279 63  12 12" xmlns="http://www.w3.org/2000/svg">
  <path d="M 285 63  C 288.36 63  291 65.64  291 69  C 291 72.36  288.36 75  285 75  C 281.64 75  279 72.36  279 69  C 279 65.64  281.64 63  285 63  Z " fill-rule="nonzero" fill="#ffffff" stroke="none" />
  <path d="M 285 63.5  C 288.08 63.5  290.5 65.92  290.5 69  C 290.5 72.08  288.08 74.5  285 74.5  C 281.92 74.5  279.5 72.08  279.5 69  C 279.5 65.92  281.92 63.5  285 63.5  Z " stroke-width="1" stroke="#797979" fill="none" />
  <path d="M 285 72  C 283.32 72  282 70.68  282 69  C 282 67.32  283.32 66  285 66  C 286.68 66  288 67.32  288 69  C 288 70.68  286.68 72  285 72  " fill-rule="nonzero" fill="#797979" stroke="none" />
</svg>