<?xml version="1.0" encoding="utf-8"?>
<svg version="1.1" xmlns:xlink="http://www.w3.org/1999/xlink" width="12px" height="12px" viewBox="183 23  12 12" xmlns="http://www.w3.org/2000/svg">
  <path d="M 189 23  C 192.36 23  195 25.64  195 29  C 195 32.36  192.36 35  189 35  C 185.64 35  183 32.36  183 29  C 183 25.64  185.64 23  189 23  Z " fill-rule="nonzero" fill="#ffffff" stroke="none" />
  <path d="M 189 23.5  C 192.08 23.5  194.5 25.92  194.5 29  C 194.5 32.08  192.08 34.5  189 34.5  C 185.92 34.5  183.5 32.08  183.5 29  C 183.5 25.92  185.92 23.5  189 23.5  Z " stroke-width="1" stroke="#797979" fill="none" />
  <path d="M 189 32  C 187.32 32  186 30.68  186 29  C 186 27.32  187.32 26  189 26  C 190.68 26  192 27.32  192 29  C 192 30.68  190.68 32  189 32  " fill-rule="nonzero" fill="#797979" stroke="none" />
</svg>