<?xml version="1.0" encoding="utf-8"?>
<svg version="1.1" xmlns:xlink="http://www.w3.org/1999/xlink" width="12px" height="12px" viewBox="87 63  12 12" xmlns="http://www.w3.org/2000/svg">
  <path d="M 93 63  C 96.36 63  99 65.64  99 69  C 99 72.36  96.36 75  93 75  C 89.64 75  87 72.36  87 69  C 87 65.64  89.64 63  93 63  Z " fill-rule="nonzero" fill="#ffffff" stroke="none" />
  <path d="M 93 63.5  C 96.08 63.5  98.5 65.92  98.5 69  C 98.5 72.08  96.08 74.5  93 74.5  C 89.92 74.5  87.5 72.08  87.5 69  C 87.5 65.92  89.92 63.5  93 63.5  Z " stroke-width="1" stroke="#797979" fill="none" />
  <path d="M 93 72  C 91.32 72  90 70.68  90 69  C 90 67.32  91.32 66  93 66  C 94.68 66  96 67.32  96 69  C 96 70.68  94.68 72  93 72  " fill-rule="nonzero" fill="#797979" stroke="none" />
</svg>