<?xml version="1.0" encoding="utf-8"?>
<svg version="1.1" xmlns:xlink="http://www.w3.org/1999/xlink" width="12px" height="12px" viewBox="97 136  12 12" xmlns="http://www.w3.org/2000/svg">
  <path d="M 97.5 138  A 1.5 1.5 0 0 1 99 136.5 L 107 136.5  A 1.5 1.5 0 0 1 108.5 138 L 108.5 146  A 1.5 1.5 0 0 1 107 147.5 L 99 147.5  A 1.5 1.5 0 0 1 97.5 146 L 97.5 138  Z " fill-rule="nonzero" fill="#ffffff" stroke="none" />
  <path d="M 97.5 138  A 1.5 1.5 0 0 1 99 136.5 L 107 136.5  A 1.5 1.5 0 0 1 108.5 138 L 108.5 146  A 1.5 1.5 0 0 1 107 147.5 L 99 147.5  A 1.5 1.5 0 0 1 97.5 146 L 97.5 138  Z " stroke-width="1" stroke="#797979" fill="none" />
</svg>