<?xml version="1.0" encoding="utf-8"?>
<svg version="1.1" xmlns:xlink="http://www.w3.org/1999/xlink" width="12px" height="12px" viewBox="97 106  12 12" xmlns="http://www.w3.org/2000/svg">
  <path d="M 97.5 108  A 1.5 1.5 0 0 1 99 106.5 L 107 106.5  A 1.5 1.5 0 0 1 108.5 108 L 108.5 116  A 1.5 1.5 0 0 1 107 117.5 L 99 117.5  A 1.5 1.5 0 0 1 97.5 116 L 97.5 108  Z " fill-rule="nonzero" fill="#ffffff" stroke="none" />
  <path d="M 97.5 108  A 1.5 1.5 0 0 1 99 106.5 L 107 106.5  A 1.5 1.5 0 0 1 108.5 108 L 108.5 116  A 1.5 1.5 0 0 1 107 117.5 L 99 117.5  A 1.5 1.5 0 0 1 97.5 116 L 97.5 108  Z " stroke-width="1" stroke="#797979" fill="none" />
  <path d="M 99.5714285714286 112  L 102.142857142857 114.571428571429  L 106.428571428571 108.571428571429  " stroke-width="2.57142857142857" stroke="#797979" fill="none" />
</svg>