<?xml version="1.0" encoding="utf-8"?>
<svg version="1.1" xmlns:xlink="http://www.w3.org/1999/xlink" width="12px" height="12px" viewBox="97 67  12 12" xmlns="http://www.w3.org/2000/svg">
  <path d="M 97.5 69  A 1.5 1.5 0 0 1 99 67.5 L 107 67.5  A 1.5 1.5 0 0 1 108.5 69 L 108.5 77  A 1.5 1.5 0 0 1 107 78.5 L 99 78.5  A 1.5 1.5 0 0 1 97.5 77 L 97.5 69  Z " fill-rule="nonzero" fill="#ffffff" stroke="none" />
  <path d="M 97.5 69  A 1.5 1.5 0 0 1 99 67.5 L 107 67.5  A 1.5 1.5 0 0 1 108.5 69 L 108.5 77  A 1.5 1.5 0 0 1 107 78.5 L 99 78.5  A 1.5 1.5 0 0 1 97.5 77 L 97.5 69  Z " stroke-width="1" stroke="#797979" fill="none" />
  <path d="M 99.5714285714286 73  L 102.142857142857 75.5714285714286  L 106.428571428571 69.5714285714286  " stroke-width="2.57142857142857" stroke="#797979" fill="none" />
</svg>