<?xml version="1.0" encoding="utf-8"?>
<svg version="1.1" xmlns:xlink="http://www.w3.org/1999/xlink" width="12px" height="12px" viewBox="39 121  12 12" xmlns="http://www.w3.org/2000/svg">
  <path d="M 39.5 123  A 1.5 1.5 0 0 1 41 121.5 L 49 121.5  A 1.5 1.5 0 0 1 50.5 123 L 50.5 131  A 1.5 1.5 0 0 1 49 132.5 L 41 132.5  A 1.5 1.5 0 0 1 39.5 131 L 39.5 123  Z " fill-rule="nonzero" fill="#f0f0f0" stroke="none" />
  <path d="M 39.5 123  A 1.5 1.5 0 0 1 41 121.5 L 49 121.5  A 1.5 1.5 0 0 1 50.5 123 L 50.5 131  A 1.5 1.5 0 0 1 49 132.5 L 41 132.5  A 1.5 1.5 0 0 1 39.5 131 L 39.5 123  Z " stroke-width="1" stroke="#797979" fill="none" />
</svg>