<?xml version="1.0" encoding="utf-8"?>
<svg version="1.1" xmlns:xlink="http://www.w3.org/1999/xlink" width="12px" height="12px" viewBox="39 163  12 12" xmlns="http://www.w3.org/2000/svg">
  <path d="M 39.5 165  A 1.5 1.5 0 0 1 41 163.5 L 49 163.5  A 1.5 1.5 0 0 1 50.5 165 L 50.5 173  A 1.5 1.5 0 0 1 49 174.5 L 41 174.5  A 1.5 1.5 0 0 1 39.5 173 L 39.5 165  Z " fill-rule="nonzero" fill="#ffffff" stroke="none" />
  <path d="M 39.5 165  A 1.5 1.5 0 0 1 41 163.5 L 49 163.5  A 1.5 1.5 0 0 1 50.5 165 L 50.5 173  A 1.5 1.5 0 0 1 49 174.5 L 41 174.5  A 1.5 1.5 0 0 1 39.5 173 L 39.5 165  Z " stroke-width="1" stroke="#797979" fill="none" />
  <path d="M 41.5714285714286 169  L 44.1428571428571 171.571428571429  L 48.4285714285714 165.571428571429  " stroke-width="2.57142857142857" stroke="#797979" fill="none" />
</svg>