<?xml version="1.0" encoding="utf-8"?>
<svg version="1.1" xmlns:xlink="http://www.w3.org/1999/xlink" width="12px" height="12px" viewBox="39 91  12 12" xmlns="http://www.w3.org/2000/svg">
  <path d="M 39.5 93  A 1.5 1.5 0 0 1 41 91.5 L 49 91.5  A 1.5 1.5 0 0 1 50.5 93 L 50.5 101  A 1.5 1.5 0 0 1 49 102.5 L 41 102.5  A 1.5 1.5 0 0 1 39.5 101 L 39.5 93  Z " fill-rule="nonzero" fill="#ffffff" stroke="none" />
  <path d="M 39.5 93  A 1.5 1.5 0 0 1 41 91.5 L 49 91.5  A 1.5 1.5 0 0 1 50.5 93 L 50.5 101  A 1.5 1.5 0 0 1 49 102.5 L 41 102.5  A 1.5 1.5 0 0 1 39.5 101 L 39.5 93  Z " stroke-width="1" stroke="#797979" fill="none" />
</svg>