<?xml version="1.0" encoding="utf-8"?>
<svg version="1.1" xmlns:xlink="http://www.w3.org/1999/xlink" width="12px" height="12px" viewBox="87 62  12 12" xmlns="http://www.w3.org/2000/svg">
  <path d="M 87.5 64  A 1.5 1.5 0 0 1 89 62.5 L 97 62.5  A 1.5 1.5 0 0 1 98.5 64 L 98.5 72  A 1.5 1.5 0 0 1 97 73.5 L 89 73.5  A 1.5 1.5 0 0 1 87.5 72 L 87.5 64  Z " fill-rule="nonzero" fill="#ffffff" stroke="none" />
  <path d="M 87.5 64  A 1.5 1.5 0 0 1 89 62.5 L 97 62.5  A 1.5 1.5 0 0 1 98.5 64 L 98.5 72  A 1.5 1.5 0 0 1 97 73.5 L 89 73.5  A 1.5 1.5 0 0 1 87.5 72 L 87.5 64  Z " stroke-width="1" stroke="#797979" fill="none" />
  <path d="M 89.5714285714286 68  L 92.1428571428571 70.5714285714286  L 96.4285714285714 64.5714285714286  " stroke-width="2.57142857142857" stroke="#797979" fill="none" />
</svg>