<?xml version="1.0" encoding="utf-8"?>
<svg version="1.1" xmlns:xlink="http://www.w3.org/1999/xlink" width="12px" height="12px" viewBox="282 62  12 12" xmlns="http://www.w3.org/2000/svg">
  <path d="M 282.5 64  A 1.5 1.5 0 0 1 284 62.5 L 292 62.5  A 1.5 1.5 0 0 1 293.5 64 L 293.5 72  A 1.5 1.5 0 0 1 292 73.5 L 284 73.5  A 1.5 1.5 0 0 1 282.5 72 L 282.5 64  Z " fill-rule="nonzero" fill="#ffffff" stroke="none" />
  <path d="M 282.5 64  A 1.5 1.5 0 0 1 284 62.5 L 292 62.5  A 1.5 1.5 0 0 1 293.5 64 L 293.5 72  A 1.5 1.5 0 0 1 292 73.5 L 284 73.5  A 1.5 1.5 0 0 1 282.5 72 L 282.5 64  Z " stroke-width="1" stroke="#797979" fill="none" />
</svg>