<?xml version="1.0" encoding="utf-8"?>
<svg version="1.1" xmlns:xlink="http://www.w3.org/1999/xlink" width="12px" height="12px" viewBox="442 62  12 12" xmlns="http://www.w3.org/2000/svg">
  <path d="M 442.5 64  A 1.5 1.5 0 0 1 444 62.5 L 452 62.5  A 1.5 1.5 0 0 1 453.5 64 L 453.5 72  A 1.5 1.5 0 0 1 452 73.5 L 444 73.5  A 1.5 1.5 0 0 1 442.5 72 L 442.5 64  Z " fill-rule="nonzero" fill="#ffffff" stroke="none" />
  <path d="M 442.5 64  A 1.5 1.5 0 0 1 444 62.5 L 452 62.5  A 1.5 1.5 0 0 1 453.5 64 L 453.5 72  A 1.5 1.5 0 0 1 452 73.5 L 444 73.5  A 1.5 1.5 0 0 1 442.5 72 L 442.5 64  Z " stroke-width="1" stroke="#797979" fill="none" />
  <path d="M 444.571428571429 68  L 447.142857142857 70.5714285714286  L 451.428571428571 64.5714285714286  " stroke-width="2.57142857142857" stroke="#797979" fill="none" />
</svg>