<?xml version="1.0" encoding="utf-8"?>
<svg version="1.1" xmlns:xlink="http://www.w3.org/1999/xlink" width="12px" height="12px" viewBox="70 209  12 12" xmlns="http://www.w3.org/2000/svg">
  <path d="M 70.5 211  A 1.5 1.5 0 0 1 72 209.5 L 80 209.5  A 1.5 1.5 0 0 1 81.5 211 L 81.5 219  A 1.5 1.5 0 0 1 80 220.5 L 72 220.5  A 1.5 1.5 0 0 1 70.5 219 L 70.5 211  Z " fill-rule="nonzero" fill="#ffffff" stroke="none" />
  <path d="M 70.5 211  A 1.5 1.5 0 0 1 72 209.5 L 80 209.5  A 1.5 1.5 0 0 1 81.5 211 L 81.5 219  A 1.5 1.5 0 0 1 80 220.5 L 72 220.5  A 1.5 1.5 0 0 1 70.5 219 L 70.5 211  Z " stroke-width="1" stroke="#797979" fill="none" />
  <path d="M 72.5714285714286 215  L 75.1428571428571 217.571428571429  L 79.4285714285714 211.571428571429  " stroke-width="2.57142857142857" stroke="#797979" fill="none" />
</svg>