<?xml version="1.0" encoding="utf-8"?>
<svg version="1.1" xmlns:xlink="http://www.w3.org/1999/xlink" width="12px" height="12px" viewBox="70 178  12 12" xmlns="http://www.w3.org/2000/svg">
  <path d="M 70.5 180  A 1.5 1.5 0 0 1 72 178.5 L 80 178.5  A 1.5 1.5 0 0 1 81.5 180 L 81.5 188  A 1.5 1.5 0 0 1 80 189.5 L 72 189.5  A 1.5 1.5 0 0 1 70.5 188 L 70.5 180  Z " fill-rule="nonzero" fill="#f0f0f0" stroke="none" />
  <path d="M 70.5 180  A 1.5 1.5 0 0 1 72 178.5 L 80 178.5  A 1.5 1.5 0 0 1 81.5 180 L 81.5 188  A 1.5 1.5 0 0 1 80 189.5 L 72 189.5  A 1.5 1.5 0 0 1 70.5 188 L 70.5 180  Z " stroke-width="1" stroke="#797979" fill="none" />
</svg>