<?xml version="1.0" encoding="utf-8"?>
<svg version="1.1" xmlns:xlink="http://www.w3.org/1999/xlink" width="12px" height="12px" viewBox="282 290  12 12" xmlns="http://www.w3.org/2000/svg">
  <path d="M 282.5 292  A 1.5 1.5 0 0 1 284 290.5 L 292 290.5  A 1.5 1.5 0 0 1 293.5 292 L 293.5 300  A 1.5 1.5 0 0 1 292 301.5 L 284 301.5  A 1.5 1.5 0 0 1 282.5 300 L 282.5 292  Z " fill-rule="nonzero" fill="#f0f0f0" stroke="none" />
  <path d="M 282.5 292  A 1.5 1.5 0 0 1 284 290.5 L 292 290.5  A 1.5 1.5 0 0 1 293.5 292 L 293.5 300  A 1.5 1.5 0 0 1 292 301.5 L 284 301.5  A 1.5 1.5 0 0 1 282.5 300 L 282.5 292  Z " stroke-width="1" stroke="#797979" fill="none" />
</svg>