<?xml version="1.0" encoding="utf-8"?>
<svg version="1.1" xmlns:xlink="http://www.w3.org/1999/xlink" width="12px" height="12px" viewBox="183 63  12 12" xmlns="http://www.w3.org/2000/svg">
  <path d="M 189 63  C 192.36 63  195 65.64  195 69  C 195 72.36  192.36 75  189 75  C 185.64 75  183 72.36  183 69  C 183 65.64  185.64 63  189 63  Z " fill-rule="nonzero" fill="#ffffff" stroke="none" />
  <path d="M 189 63.5  C 192.08 63.5  194.5 65.92  194.5 69  C 194.5 72.08  192.08 74.5  189 74.5  C 185.92 74.5  183.5 72.08  183.5 69  C 183.5 65.92  185.92 63.5  189 63.5  Z " stroke-width="1" stroke="#797979" fill="none" />
  <path d="M 189 72  C 187.32 72  186 70.68  186 69  C 186 67.32  187.32 66  189 66  C 190.68 66  192 67.32  192 69  C 192 70.68  190.68 72  189 72  " fill-rule="nonzero" fill="#797979" stroke="none" />
</svg>