<?xml version="1.0" encoding="utf-8"?>
<svg version="1.1" xmlns:xlink="http://www.w3.org/1999/xlink" width="12px" height="12px" viewBox="1264 464  12 12" xmlns="http://www.w3.org/2000/svg">
  <path d="M 1264.5 466  A 1.5 1.5 0 0 1 1266 464.5 L 1274 464.5  A 1.5 1.5 0 0 1 1275.5 466 L 1275.5 474  A 1.5 1.5 0 0 1 1274 475.5 L 1266 475.5  A 1.5 1.5 0 0 1 1264.5 474 L 1264.5 466  Z " fill-rule="nonzero" fill="#ffffff" stroke="none" />
  <path d="M 1264.5 466  A 1.5 1.5 0 0 1 1266 464.5 L 1274 464.5  A 1.5 1.5 0 0 1 1275.5 466 L 1275.5 474  A 1.5 1.5 0 0 1 1274 475.5 L 1266 475.5  A 1.5 1.5 0 0 1 1264.5 474 L 1264.5 466  Z " stroke-width="1" stroke="#797979" fill="none" />
  <path d="M 1266.57142857143 470  L 1269.14285714286 472.571428571429  L 1273.42857142857 466.571428571429  " stroke-width="2.57142857142857" stroke="#797979" fill="none" />
</svg>