<?xml version="1.0" encoding="utf-8"?>
<svg version="1.1" xmlns:xlink="http://www.w3.org/1999/xlink" width="12px" height="12px" viewBox="1258 502  12 12" xmlns="http://www.w3.org/2000/svg">
  <path d="M 1258.5 504  A 1.5 1.5 0 0 1 1260 502.5 L 1268 502.5  A 1.5 1.5 0 0 1 1269.5 504 L 1269.5 512  A 1.5 1.5 0 0 1 1268 513.5 L 1260 513.5  A 1.5 1.5 0 0 1 1258.5 512 L 1258.5 504  Z " fill-rule="nonzero" fill="#ffffff" stroke="none" />
  <path d="M 1258.5 504  A 1.5 1.5 0 0 1 1260 502.5 L 1268 502.5  A 1.5 1.5 0 0 1 1269.5 504 L 1269.5 512  A 1.5 1.5 0 0 1 1268 513.5 L 1260 513.5  A 1.5 1.5 0 0 1 1258.5 512 L 1258.5 504  Z " stroke-width="1" stroke="#797979" fill="none" />
  <path d="M 1260.57142857143 508  L 1263.14285714286 510.571428571429  L 1267.42857142857 504.571428571429  " stroke-width="2.57142857142857" stroke="#797979" fill="none" />
</svg>