<?xml version="1.0" encoding="utf-8"?>
<svg version="1.1" xmlns:xlink="http://www.w3.org/1999/xlink" width="12px" height="12px" viewBox="1258 547  12 12" xmlns="http://www.w3.org/2000/svg">
  <path d="M 1258.5 549  A 1.5 1.5 0 0 1 1260 547.5 L 1268 547.5  A 1.5 1.5 0 0 1 1269.5 549 L 1269.5 557  A 1.5 1.5 0 0 1 1268 558.5 L 1260 558.5  A 1.5 1.5 0 0 1 1258.5 557 L 1258.5 549  Z " fill-rule="nonzero" fill="#ffffff" stroke="none" />
  <path d="M 1258.5 549  A 1.5 1.5 0 0 1 1260 547.5 L 1268 547.5  A 1.5 1.5 0 0 1 1269.5 549 L 1269.5 557  A 1.5 1.5 0 0 1 1268 558.5 L 1260 558.5  A 1.5 1.5 0 0 1 1258.5 557 L 1258.5 549  Z " stroke-width="1" stroke="#797979" fill="none" />
</svg>