<?xml version="1.0" encoding="utf-8"?>
<svg version="1.1" xmlns:xlink="http://www.w3.org/1999/xlink" width="12px" height="12px" viewBox="605 109  12 12" xmlns="http://www.w3.org/2000/svg">
  <path d="M 605.5 111  A 1.5 1.5 0 0 1 607 109.5 L 615 109.5  A 1.5 1.5 0 0 1 616.5 111 L 616.5 119  A 1.5 1.5 0 0 1 615 120.5 L 607 120.5  A 1.5 1.5 0 0 1 605.5 119 L 605.5 111  Z " fill-rule="nonzero" fill="#ffffff" stroke="none" />
  <path d="M 605.5 111  A 1.5 1.5 0 0 1 607 109.5 L 615 109.5  A 1.5 1.5 0 0 1 616.5 111 L 616.5 119  A 1.5 1.5 0 0 1 615 120.5 L 607 120.5  A 1.5 1.5 0 0 1 605.5 119 L 605.5 111  Z " stroke-width="1" stroke="#797979" fill="none" />
  <path d="M 607.571428571429 115  L 610.142857142857 117.571428571429  L 614.428571428571 111.571428571429  " stroke-width="2.57142857142857" stroke="#797979" fill="none" />
</svg>