<?xml version="1.0" encoding="utf-8"?>
<svg version="1.1" xmlns:xlink="http://www.w3.org/1999/xlink" width="12px" height="12px" viewBox="679 64  12 12" xmlns="http://www.w3.org/2000/svg">
  <path d="M 679.5 66  A 1.5 1.5 0 0 1 681 64.5 L 689 64.5  A 1.5 1.5 0 0 1 690.5 66 L 690.5 74  A 1.5 1.5 0 0 1 689 75.5 L 681 75.5  A 1.5 1.5 0 0 1 679.5 74 L 679.5 66  Z " fill-rule="nonzero" fill="#ffffff" stroke="none" />
  <path d="M 679.5 66  A 1.5 1.5 0 0 1 681 64.5 L 689 64.5  A 1.5 1.5 0 0 1 690.5 66 L 690.5 74  A 1.5 1.5 0 0 1 689 75.5 L 681 75.5  A 1.5 1.5 0 0 1 679.5 74 L 679.5 66  Z " stroke-width="1" stroke="#797979" fill="none" />
</svg>