<?xml version="1.0" encoding="utf-8"?>
<svg version="1.1" xmlns:xlink="http://www.w3.org/1999/xlink" width="12px" height="12px" viewBox="679 109  12 12" xmlns="http://www.w3.org/2000/svg">
  <path d="M 679.5 111  A 1.5 1.5 0 0 1 681 109.5 L 689 109.5  A 1.5 1.5 0 0 1 690.5 111 L 690.5 119  A 1.5 1.5 0 0 1 689 120.5 L 681 120.5  A 1.5 1.5 0 0 1 679.5 119 L 679.5 111  Z " fill-rule="nonzero" fill="#f0f0f0" stroke="none" />
  <path d="M 679.5 111  A 1.5 1.5 0 0 1 681 109.5 L 689 109.5  A 1.5 1.5 0 0 1 690.5 111 L 690.5 119  A 1.5 1.5 0 0 1 689 120.5 L 681 120.5  A 1.5 1.5 0 0 1 679.5 119 L 679.5 111  Z " stroke-width="1" stroke="#797979" fill="none" />
</svg>