<?xml version="1.0" encoding="utf-8"?>
<svg version="1.1" xmlns:xlink="http://www.w3.org/1999/xlink" width="12px" height="12px" viewBox="605 64  12 12" xmlns="http://www.w3.org/2000/svg">
  <path d="M 605.5 66  A 1.5 1.5 0 0 1 607 64.5 L 615 64.5  A 1.5 1.5 0 0 1 616.5 66 L 616.5 74  A 1.5 1.5 0 0 1 615 75.5 L 607 75.5  A 1.5 1.5 0 0 1 605.5 74 L 605.5 66  Z " fill-rule="nonzero" fill="#ffffff" stroke="none" />
  <path d="M 605.5 66  A 1.5 1.5 0 0 1 607 64.5 L 615 64.5  A 1.5 1.5 0 0 1 616.5 66 L 616.5 74  A 1.5 1.5 0 0 1 615 75.5 L 607 75.5  A 1.5 1.5 0 0 1 605.5 74 L 605.5 66  Z " stroke-width="1" stroke="#797979" fill="none" />
</svg>