<?xml version="1.0" encoding="utf-8"?>
<svg version="1.1" xmlns:xlink="http://www.w3.org/1999/xlink" width="12px" height="12px" viewBox="33 245  12 12" xmlns="http://www.w3.org/2000/svg">
  <path d="M 33.5 247  A 1.5 1.5 0 0 1 35 245.5 L 43 245.5  A 1.5 1.5 0 0 1 44.5 247 L 44.5 255  A 1.5 1.5 0 0 1 43 256.5 L 35 256.5  A 1.5 1.5 0 0 1 33.5 255 L 33.5 247  Z " fill-rule="nonzero" fill="#f0f0f0" stroke="none" />
  <path d="M 33.5 247  A 1.5 1.5 0 0 1 35 245.5 L 43 245.5  A 1.5 1.5 0 0 1 44.5 247 L 44.5 255  A 1.5 1.5 0 0 1 43 256.5 L 35 256.5  A 1.5 1.5 0 0 1 33.5 255 L 33.5 247  Z " stroke-width="1" stroke="#797979" fill="none" />
</svg>