<?xml version="1.0" encoding="utf-8"?>
<svg version="1.1" xmlns:xlink="http://www.w3.org/1999/xlink" width="12px" height="12px" viewBox="287 318  12 12" xmlns="http://www.w3.org/2000/svg">
  <path d="M 287.5 320  A 1.5 1.5 0 0 1 289 318.5 L 297 318.5  A 1.5 1.5 0 0 1 298.5 320 L 298.5 328  A 1.5 1.5 0 0 1 297 329.5 L 289 329.5  A 1.5 1.5 0 0 1 287.5 328 L 287.5 320  Z " fill-rule="nonzero" fill="#ffffff" stroke="none" />
  <path d="M 287.5 320  A 1.5 1.5 0 0 1 289 318.5 L 297 318.5  A 1.5 1.5 0 0 1 298.5 320 L 298.5 328  A 1.5 1.5 0 0 1 297 329.5 L 289 329.5  A 1.5 1.5 0 0 1 287.5 328 L 287.5 320  Z " stroke-width="1" stroke="#797979" fill="none" />
  <path d="M 289.571428571429 324  L 292.142857142857 326.571428571429  L 296.428571428571 320.571428571429  " stroke-width="2.57142857142857" stroke="#797979" fill="none" />
</svg>