<?xml version="1.0" encoding="utf-8"?>
<svg version="1.1" xmlns:xlink="http://www.w3.org/1999/xlink" width="12px" height="12px" viewBox="340 370  12 12" xmlns="http://www.w3.org/2000/svg">
  <path d="M 340.5 372  A 1.5 1.5 0 0 1 342 370.5 L 350 370.5  A 1.5 1.5 0 0 1 351.5 372 L 351.5 380  A 1.5 1.5 0 0 1 350 381.5 L 342 381.5  A 1.5 1.5 0 0 1 340.5 380 L 340.5 372  Z " fill-rule="nonzero" fill="#ffffff" stroke="none" />
  <path d="M 340.5 372  A 1.5 1.5 0 0 1 342 370.5 L 350 370.5  A 1.5 1.5 0 0 1 351.5 372 L 351.5 380  A 1.5 1.5 0 0 1 350 381.5 L 342 381.5  A 1.5 1.5 0 0 1 340.5 380 L 340.5 372  Z " stroke-width="1" stroke="#797979" fill="none" />
  <path d="M 342.571428571429 376  L 345.142857142857 378.571428571429  L 349.428571428571 372.571428571429  " stroke-width="2.57142857142857" stroke="#797979" fill="none" />
</svg>