<?xml version="1.0" encoding="utf-8"?>
<svg version="1.1" xmlns:xlink="http://www.w3.org/1999/xlink" width="12px" height="12px" viewBox="340 400  12 12" xmlns="http://www.w3.org/2000/svg">
  <path d="M 340.5 402  A 1.5 1.5 0 0 1 342 400.5 L 350 400.5  A 1.5 1.5 0 0 1 351.5 402 L 351.5 410  A 1.5 1.5 0 0 1 350 411.5 L 342 411.5  A 1.5 1.5 0 0 1 340.5 410 L 340.5 402  Z " fill-rule="nonzero" fill="#f0f0f0" stroke="none" />
  <path d="M 340.5 402  A 1.5 1.5 0 0 1 342 400.5 L 350 400.5  A 1.5 1.5 0 0 1 351.5 402 L 351.5 410  A 1.5 1.5 0 0 1 350 411.5 L 342 411.5  A 1.5 1.5 0 0 1 340.5 410 L 340.5 402  Z " stroke-width="1" stroke="#797979" fill="none" />
</svg>