<?xml version="1.0" encoding="utf-8"?>
<svg version="1.1" xmlns:xlink="http://www.w3.org/1999/xlink" width="12px" height="12px" viewBox="67 121  12 12" xmlns="http://www.w3.org/2000/svg">
  <path d="M 67.5 123  A 1.5 1.5 0 0 1 69 121.5 L 77 121.5  A 1.5 1.5 0 0 1 78.5 123 L 78.5 131  A 1.5 1.5 0 0 1 77 132.5 L 69 132.5  A 1.5 1.5 0 0 1 67.5 131 L 67.5 123  Z " fill-rule="nonzero" fill="#ffffff" stroke="none" />
  <path d="M 67.5 123  A 1.5 1.5 0 0 1 69 121.5 L 77 121.5  A 1.5 1.5 0 0 1 78.5 123 L 78.5 131  A 1.5 1.5 0 0 1 77 132.5 L 69 132.5  A 1.5 1.5 0 0 1 67.5 131 L 67.5 123  Z " stroke-width="1" stroke="#797979" fill="none" />
  <path d="M 69.5714285714286 127  L 72.1428571428571 129.571428571429  L 76.4285714285714 123.571428571429  " stroke-width="2.57142857142857" stroke="#797979" fill="none" />
</svg>