<?xml version="1.0" encoding="utf-8"?>
<svg version="1.1" xmlns:xlink="http://www.w3.org/1999/xlink" width="12px" height="12px" viewBox="220 468  12 12" xmlns="http://www.w3.org/2000/svg">
  <path d="M 220.5 470  A 1.5 1.5 0 0 1 222 468.5 L 230 468.5  A 1.5 1.5 0 0 1 231.5 470 L 231.5 478  A 1.5 1.5 0 0 1 230 479.5 L 222 479.5  A 1.5 1.5 0 0 1 220.5 478 L 220.5 470  Z " fill-rule="nonzero" fill="#f0f0f0" stroke="none" />
  <path d="M 220.5 470  A 1.5 1.5 0 0 1 222 468.5 L 230 468.5  A 1.5 1.5 0 0 1 231.5 470 L 231.5 478  A 1.5 1.5 0 0 1 230 479.5 L 222 479.5  A 1.5 1.5 0 0 1 220.5 478 L 220.5 470  Z " stroke-width="1" stroke="#797979" fill="none" />
</svg>